<svg version="1.1" xmlns="http://www.w3.org/2000/svg" xmlns:xlink="http://www.w3.org/1999/xlink" width="122.02984" height="121.81536" viewBox="0,0,122.02984,121.81536"><defs><linearGradient x1="320.04279" y1="109.49686" x2="320.04279" y2="205.17628" gradientUnits="userSpaceOnUse" id="color-1"><stop offset="0" stop-color="#ff9500"/><stop offset="1" stop-color="#ff0000"/></linearGradient></defs><g transform="translate(-258.98508,-104.59233)"><g stroke="none" stroke-miterlimit="10"><path d="" fill="#000000" stroke-width="0.5"/><path d="" fill="#000000" stroke-width="0.5"/><path d="" fill="#000000" stroke-width="0.5"/><g><path d="M272.86923,185.0435c-1.18335,-1.33592 -2.27223,-2.68815 -3.25337,-4.0466c-20.6176,-25.26978 -9.72481,-61.69286 19.57967,-73.63317c22.79685,-6.6601 54.64555,-0.54599 75.45466,10.15064c23.96106,11.83533 17.29992,41.60127 7.13005,61.22957c-1.10881,1.23244 -1.63597,2.88408 -2.47536,4.3137c-0.17913,0.30509 -4.28509,4.97281 -4.39972,5.09049c-0.91429,0.93864 -1.86432,1.81892 -2.84299,2.65381c0.12146,3.69279 -0.3636,7.29102 -0.73233,10.98434l0.13247,1.49658c0,0 0.16398,2.49462 -2.33063,2.6586c-2.49462,0.16398 -2.6586,-2.33063 -2.6586,-2.33063l-0.1185,-2.32127c0.2232,-2.23561 0.51279,-4.44472 0.65357,-6.66214c-3.08724,2.11001 -6.31954,4.01455 -9.51841,6.03974c-1.7729,1.12241 -3.27054,2.65544 -5.08102,3.71617c-1.54064,0.90263 -3.14599,1.70286 -4.79814,2.40059c-0.12288,3.20241 -0.87297,6.31413 -1.2042,9.58161c-0.09087,0.89639 -0.0921,1.80692 -0.277,2.68873c-0.08204,0.39122 -0.80009,0.80433 -0.51397,1.08347c0.2944,0.28723 0.73435,-0.403 1.13965,-0.47305c0.87482,-0.15121 1.77127,-0.1238 2.65707,-0.1832c3.15621,-0.21163 6.03642,-0.3124 9.10537,-1.04374l2.27661,-0.61438c0,0 2.41401,-0.65003 3.06404,1.76398c0.65003,2.41401 -1.76398,3.06404 -1.76398,3.06404l-2.43295,0.65379c-3.93942,0.91431 -8.94622,1.80824 -12.99083,1.35879c-1.57934,-0.1755 -3.54175,0.08787 -4.64987,-1.05107c-1.09899,-1.12956 -0.77081,-3.07187 -0.89042,-4.64329c-0.26638,-3.49986 0.91997,-6.95961 1.3642,-10.38945c-1.89629,0.53891 -3.82719,0.95431 -5.769,1.24606c-0.47135,0.19363 -0.8743,0.22012 -0.8743,0.22012c-0.46312,0.03044 -0.92951,0.0519 -1.3989,0.06457c-0.48818,0.049 -0.97647,0.09021 -1.46448,0.12365l0.17522,0.20327c0,0 -1.83593,1.07395 -3.11152,-0.45276c-10.27561,-0.83334 -21.53462,-5.32602 -31.26071,-11.56297c0.39777,4.83541 0.98381,9.76942 0.92857,14.57636c-0.02308,2.00803 -0.13463,4.03969 -0.59002,5.99554c-0.10967,0.47104 -0.75915,0.80247 -0.68303,1.28008c0.04665,0.2927 0.54474,-0.28304 0.84108,-0.28842c1.02793,-0.01868 2.05133,0.1417 3.07665,0.21725c3.08019,0.22695 6.14652,0.53397 9.2194,0.84076l1.848,0.45229c0,0 2.41846,0.6333 1.78516,3.05176c-0.6333,2.41846 -3.05176,1.78515 -3.05176,1.78515l-1.07812,-0.31394c-3.99318,-0.39867 -8.9474,-0.04862 -12.77092,-1.12858c-1.43476,-0.40525 -3.24333,-0.63416 -4.05671,-1.88364c-1.32844,-2.04068 0.43499,-7.66857 0.46098,-10.09292c0.05837,-5.44421 -0.73573,-11.06257 -1.09294,-16.49677c0,0 -0.04551,-0.69228 0.27611,-1.37144c-1.66065,-1.23471 -3.25609,-2.51628 -4.77114,-3.83314c-1.04383,-1.59573 -2.53143,-2.87493 -4.28752,-3.66231c-0.54647,-0.86224 -1.22124,-1.63514 -1.99746,-2.29184c0.00746,-0.07159 0.01489,-0.14318 0.0223,-0.21477zM277.99154,183.23055c11.34047,11.90709 30.74056,22.27457 46.23089,21.88532c3.14318,-0.324 6.28526,-1.03131 9.28971,-2.10013c0.31029,-0.24177 0.7266,-0.42311 1.28486,-0.48253c1.76581,-0.69876 3.47575,-1.52487 5.1009,-2.47374c1.09536,-0.63954 1.70198,-1.12873 2.29459,-1.63179l-0.65835,0.04328c1.24248,-0.77683 2.30207,-1.81898 3.09942,-3.04712c0.01759,0.10611 0.03051,0.21783 0.03824,0.33546c0.01986,0.30219 0.00072,0.57018 -0.04828,0.80782c0.08165,-0.05323 0.16601,-0.1075 0.25324,-0.16287c5.73712,-3.6412 11.65144,-6.82359 16.45661,-11.75502c1.42512,-1.46256 2.40232,-2.97074 3.35563,-4.48533c-0.2185,0.02863 -0.44691,0.04552 -0.68633,0.04957c1.36951,-1.79287 2.5147,-3.72453 3.2755,-5.67004c1.09336,-1.12544 1.92416,-2.50733 2.39356,-4.04682c0.15297,0.01551 0.31106,0.04891 0.47316,0.10443c7.20209,-16.72104 11.16816,-39.54787 -7.73298,-48.61567c-19.5783,-10.06229 -50.06276,-16.18738 -71.56852,-9.90101c-26.15955,10.68909 -35.72481,43.14263 -17.41293,65.68228c0.02042,-0.51736 0.03543,-1.03492 0.04425,-1.5527c1.18216,2.36506 2.82016,4.16824 4.66293,5.43584c-0.04564,0.52706 -0.09464,1.05398 -0.1461,1.58076z" fill="#754400" stroke-width="0.5"/><path d="M277.94896,183.25677c0.05146,-0.52678 0.09979,-1.05482 0.14543,-1.58188c-1.84277,-1.2676 -3.48386,-3.07709 -4.66602,-5.44215c-0.00882,0.51778 -0.02329,1.03663 -0.04371,1.55399c-18.31188,-22.53965 -8.72794,-55.05528 17.43161,-65.74437c21.50576,-6.28637 52.05572,-0.1513 71.63402,9.91099c18.90114,9.0678 14.94501,31.93946 7.74292,48.6605c-0.1621,-0.05552 -0.3202,-0.0889 -0.47317,-0.10441c-0.4694,1.53949 -1.30155,2.92568 -2.39491,4.05112c-0.7608,1.94551 -1.90862,3.88314 -3.27813,5.67601c0.23942,-0.00405 0.46799,-0.02126 0.68649,-0.04989c-0.95331,1.51459 -1.93333,3.02759 -3.35845,4.49015c-4.80517,4.93143 -10.73437,8.12843 -16.47149,11.76963c-0.08723,0.05537 -0.22496,0.02507 -0.30661,0.0783c0.049,-0.23764 0.06771,-0.50535 0.04785,-0.80754c-0.00773,-0.11763 0.03345,-0.14525 0.01586,-0.25136c-0.79735,1.22814 -1.86091,2.2726 -3.10339,3.04943l0.65892,-0.04358c-0.59261,0.50306 -1.20188,0.99358 -2.29724,1.63312c-1.62515,0.94887 -3.34065,1.77717 -5.10646,2.47593c-0.55826,0.05942 -0.97594,0.24119 -1.28623,0.48296c-3.00445,1.06882 -6.15631,1.77798 -9.29949,2.10198c-15.49033,0.38925 -34.93735,-10.00182 -46.27782,-21.90891z" fill="url(#color-1)" stroke-width="0.25"/><path d="M272.86923,185.0435c-1.18335,-1.33592 -2.27223,-2.68815 -3.25337,-4.0466c-20.6176,-25.26978 -9.72481,-61.69286 19.57967,-73.63317c4.22391,-1.23401 8.75857,-2.02949 13.47618,-2.43852c0.88463,1.50762 1.83267,3.11531 2.80622,4.75746c-5.15364,0.30051 -10.09419,1.0745 -14.63454,2.40169c-26.15955,10.68909 -35.72481,43.14263 -17.41293,65.68228c0.02042,-0.51736 0.03543,-1.03492 0.04425,-1.5527c1.18216,2.36506 2.82016,4.16824 4.66293,5.43584c-0.04564,0.52706 -0.09464,1.05398 -0.1461,1.58076v0.00001c11.34047,11.90709 30.74056,22.27457 46.23089,21.88532c3.14318,-0.324 6.28526,-1.03131 9.28971,-2.10013c0.31029,-0.24177 0.7266,-0.42311 1.28486,-0.48253c1.76581,-0.69876 3.47575,-1.52487 5.1009,-2.47374c1.09536,-0.63954 1.70198,-1.12873 2.29459,-1.63179l-0.65835,0.04328c1.24248,-0.77683 2.30207,-1.81898 3.09942,-3.04712c0.01759,0.10611 0.03051,0.21783 0.03824,0.33546c0.01986,0.30219 0.00072,0.57018 -0.04828,0.80782c0.08165,-0.05323 0.16601,-0.1075 0.25324,-0.16287c5.73712,-3.6412 11.65144,-6.82359 16.45661,-11.75502c1.42512,-1.46256 2.40232,-2.97074 3.35563,-4.48533c-0.2185,0.02863 -0.44691,0.04552 -0.68633,0.04957c0.6496,-0.85041 1.24873,-1.73204 1.7803,-2.63157c1.32613,1.55023 2.64543,3.10581 3.96095,4.6644c-0.13944,0.27533 -0.28391,0.54713 -0.43904,0.81135c-0.17913,0.30509 -4.28509,4.97281 -4.39972,5.09049c-0.91429,0.93864 -1.86432,1.81892 -2.84299,2.65381c0.12146,3.69279 -0.3636,7.29102 -0.73233,10.98434l0.13247,1.49658c0,0 0.16398,2.49462 -2.33063,2.6586c-2.49462,0.16398 -2.6586,-2.33063 -2.6586,-2.33063l-0.1185,-2.32127c0.2232,-2.23561 0.51279,-4.44472 0.65357,-6.66214c-3.08724,2.11001 -6.31954,4.01455 -9.51841,6.03974c-1.7729,1.12241 -3.27054,2.65544 -5.08102,3.71617c-1.54064,0.90263 -3.14599,1.70286 -4.79814,2.40059c-0.12288,3.20241 -0.87297,6.31413 -1.2042,9.58161c-0.09087,0.89639 -0.0921,1.80692 -0.277,2.68873c-0.08204,0.39122 -0.80009,0.80433 -0.51397,1.08347c0.2944,0.28723 0.73435,-0.403 1.13965,-0.47305c0.87482,-0.15121 1.77127,-0.1238 2.65707,-0.1832c3.15621,-0.21163 6.03642,-0.3124 9.10537,-1.04374l2.27661,-0.61438c0,0 2.41401,-0.65003 3.06404,1.76398c0.65003,2.41401 -1.76398,3.06404 -1.76398,3.06404l-2.43295,0.65379c-3.93942,0.91431 -8.94622,1.80824 -12.99083,1.35879c-1.57934,-0.1755 -3.54175,0.08787 -4.64987,-1.05107c-1.09899,-1.12956 -0.77081,-3.07187 -0.89042,-4.64329c-0.26638,-3.49986 0.91997,-6.95961 1.3642,-10.38945c-1.89629,0.53891 -3.82719,0.95431 -5.769,1.24606c-0.47135,0.19363 -0.8743,0.22012 -0.8743,0.22012c-0.46312,0.03044 -0.92951,0.0519 -1.3989,0.06457c-0.48818,0.049 -0.97647,0.09021 -1.46448,0.12365l0.17522,0.20327c0,0 -1.83593,1.07395 -3.11152,-0.45276c-10.27561,-0.83334 -21.53462,-5.32602 -31.26071,-11.56297c0.39777,4.83541 0.98381,9.76942 0.92857,14.57636c-0.02308,2.00803 -0.13463,4.03969 -0.59002,5.99554c-0.10967,0.47104 -0.75915,0.80247 -0.68303,1.28008c0.04665,0.2927 0.54474,-0.28304 0.84108,-0.28842c1.02793,-0.01868 2.05133,0.1417 3.07665,0.21725c3.08019,0.22695 6.14652,0.53397 9.2194,0.84076l1.848,0.45229c0,0 2.41846,0.6333 1.78516,3.05176c-0.6333,2.41846 -3.05176,1.78515 -3.05176,1.78515l-1.07812,-0.31394c-3.99318,-0.39867 -8.9474,-0.04862 -12.77092,-1.12858c-1.43476,-0.40525 -3.24333,-0.63416 -4.05671,-1.88364c-1.32844,-2.04068 0.43499,-7.66857 0.46098,-10.09292c0.05837,-5.44421 -0.73573,-11.06257 -1.09294,-16.49677c0,0 -0.04551,-0.69228 0.27611,-1.37144c-1.66065,-1.23471 -3.25609,-2.51628 -4.77114,-3.83314c-1.04383,-1.59573 -2.53143,-2.87493 -4.28752,-3.66231c-0.54647,-0.86224 -1.22124,-1.63514 -1.99746,-2.29184c0.00746,-0.07159 0.01489,-0.14318 0.0223,-0.21477z" fill="#3e2400" stroke-width="0.5"/><path d="M272.86923,185.0435c-1.18335,-1.33592 -2.27223,-2.68815 -3.25337,-4.0466c-12.81434,-15.70578 -13.45645,-35.71999 -5.07121,-51.48678l0.14566,0.18207l0.88639,0.67535l0.67535,0.88639l0.67936,0.54349l1.08428,1.26499l0.18861,0.13385c-6.71839,13.84274 -5.79664,31.00267 5.22617,44.57037c0.02042,-0.51736 0.03543,-1.03492 0.04425,-1.5527c1.18216,2.36506 2.82016,4.16824 4.66293,5.43584c-0.04564,0.52706 -0.09464,1.05398 -0.1461,1.58076v0.00001c11.34047,11.90709 30.74056,22.27457 46.23089,21.88532c3.14318,-0.324 6.28526,-1.03131 9.28971,-2.10013c0.31029,-0.24177 0.7266,-0.42311 1.28486,-0.48253c1.76581,-0.69876 3.47575,-1.52487 5.1009,-2.47374c1.09536,-0.63954 1.70198,-1.12873 2.29459,-1.63179l-0.65835,0.04328c1.24248,-0.77683 2.30207,-1.81898 3.09942,-3.04712c0.01759,0.10611 0.03051,0.21783 0.03824,0.33546c0.01986,0.30219 0.00072,0.57018 -0.04828,0.80782c0.08165,-0.05323 0.16601,-0.1075 0.25324,-0.16287c0.20031,-0.12713 0.40084,-0.25371 0.60154,-0.37982l0.38886,1.08882l0.56532,0.84798l0.44593,0.40539l0.00311,0.0228l0.56532,1.4133l0.44225,0.61234c-0.13316,0.08385 -0.26628,0.16788 -0.39934,0.25212c-1.7729,1.12241 -3.27054,2.65544 -5.08102,3.71617c-1.54064,0.90263 -3.14599,1.70286 -4.79814,2.40059c-0.12288,3.20241 -0.87297,6.31413 -1.2042,9.58161c-0.09087,0.89639 -0.0921,1.80692 -0.277,2.68873c-0.08204,0.39122 -0.80009,0.80433 -0.51397,1.08347c0.2944,0.28723 0.73435,-0.403 1.13965,-0.47305c0.87482,-0.15121 1.77127,-0.1238 2.65707,-0.1832c3.15621,-0.21163 6.03642,-0.3124 9.10537,-1.04374l2.27661,-0.61438c0,0 2.41401,-0.65003 3.06404,1.76398c0.65003,2.41401 -1.76398,3.06404 -1.76398,3.06404l-2.43295,0.65379c-3.93942,0.91431 -8.94622,1.80824 -12.99083,1.35879c-1.57934,-0.1755 -3.54175,0.08787 -4.64987,-1.05107c-1.09899,-1.12956 -0.77081,-3.07187 -0.89042,-4.64329c-0.26638,-3.49986 0.91997,-6.95961 1.3642,-10.38945c-1.89629,0.53891 -3.82719,0.95431 -5.769,1.24606c-0.47135,0.19363 -0.8743,0.22012 -0.8743,0.22012c-0.46312,0.03044 -0.92951,0.0519 -1.3989,0.06457c-0.48818,0.049 -0.97647,0.09021 -1.46448,0.12365l0.17522,0.20327c0,0 -1.83593,1.07395 -3.11152,-0.45276c-10.27561,-0.83334 -21.53462,-5.32602 -31.26071,-11.56297c0.39777,4.83541 0.98381,9.76942 0.92857,14.57636c-0.02308,2.00803 -0.13463,4.03969 -0.59002,5.99554c-0.10967,0.47104 -0.75915,0.80247 -0.68303,1.28008c0.04665,0.2927 0.54474,-0.28304 0.84108,-0.28842c1.02793,-0.01868 2.05133,0.1417 3.07665,0.21725c3.08019,0.22695 6.14652,0.53397 9.2194,0.84076l1.848,0.45229c0,0 2.41846,0.6333 1.78516,3.05176c-0.6333,2.41846 -3.05176,1.78515 -3.05176,1.78515l-1.07812,-0.31394c-3.99318,-0.39867 -8.9474,-0.04862 -12.77092,-1.12858c-1.43476,-0.40525 -3.24333,-0.63416 -4.05671,-1.88364c-1.32844,-2.04068 0.43499,-7.66857 0.46098,-10.09292c0.05837,-5.44421 -0.73573,-11.06257 -1.09294,-16.49677c0,0 -0.04551,-0.69228 0.27611,-1.37144c-1.66065,-1.23471 -3.25609,-2.51628 -4.77114,-3.83314c-1.04383,-1.59573 -2.53143,-2.87493 -4.28752,-3.66231c-0.54647,-0.86224 -1.22124,-1.63514 -1.99746,-2.29184c0.00746,-0.07159 0.01489,-0.14318 0.0223,-0.21477z" fill="#100900" stroke-width="0.5"/><path d="M377.84542,148.31254c-2.48754,-0.24925 -2.23829,-2.73679 -2.23829,-2.73679l0.12859,-1.13003c-0.08085,-8.70432 -4.76779,-21.35188 -14.59181,-22.23712c0,0 -2.48754,-0.24925 -2.23829,-2.73679c0.24925,-2.48754 2.73679,-2.23829 2.73679,-2.23829c3.2719,0.35328 6.72058,1.14253 9.32352,3.36416c6.05365,5.16683 9.67579,16.07793 9.7695,23.79409l-0.15322,1.68249c0,0 -0.24925,2.48754 -2.73679,2.23829z" fill="#c36f00" stroke-width="0.5"/></g></g></g></svg>