<svg version="1.1" xmlns="http://www.w3.org/2000/svg" xmlns:xlink="http://www.w3.org/1999/xlink" width="161.55486" height="117.00539" viewBox="0,0,161.55486,117.00539"><g transform="translate(-239.84554,-82.14842)"><g stroke="none" stroke-miterlimit="10"><path d="M324.4998,173.29198c-0.72093,-0.54424 -1.62764,-0.54435 -1.62764,-0.54435c-23.77743,0 -29.44777,-6.96807 -38.17595,-27.36022c-8.55927,-22.83803 -8.36567,-36.53187 11.96944,-52.83091c3.14312,-2.22557 7.32595,-2.08799 11.05795,-2.88798c17.80058,-3.81571 29.84745,-0.66448 45.65322,8.36396c14.93977,9.93614 23.11206,29.10932 17.12124,47.0818c-5.87455,17.62365 -19.38452,33.51128 -39.63676,30.17103c-1.71877,-0.49333 -3.43492,-1.01783 -5.1312,-1.58369l-1.23031,-0.40963z" fill="#ff9500" stroke-width="0.25"/><path d="M296.57757,140.5224c-4.90142,-3.2567 -9.70171,-4.17623 -15.0492,-4.63577c-4.90875,-17.40483 -2.21627,-29.42088 15.13727,-43.33013c3.14312,-2.22557 7.32595,-2.08799 11.05795,-2.88798c17.80058,-3.81571 29.84745,-0.66448 45.65322,8.36396c14.93977,9.93614 23.11206,29.10932 17.12124,47.0818c-5.87455,17.62365 -19.38452,33.51128 -39.63676,30.17103c-1.71877,-0.49333 -3.43492,-1.01783 -5.1312,-1.58369l-1.23031,-0.40963v-0.00001c-0.72093,-0.54424 -1.62764,-0.54435 -1.62764,-0.54435c-23.77743,0 -29.44777,-6.96807 -38.17595,-27.36022c-0.5562,-1.48406 -0.97909,-2.95528 -1.45838,-4.3649c3.70899,0.42647 7.16442,1.28805 10.66068,3.62754c0,0 1.98761,1.42469 3.37436,-0.65544c1.38675,-2.08013 -0.69529,-3.47223 -0.69529,-3.47223z" fill="#000000" stroke-width="0.5"/><path d="M315.08795,95.0529c1.06366,0 1.67477,0.45255 2.02588,0.97256c9.42926,5.22429 18.49343,11.42795 27.45062,17.39941c0,0 2.08013,1.38675 0.69338,3.46688c-0.46508,0.69762 -1.00815,1.0053 -1.52459,1.10613c-1.82556,7.1126 -2.69174,14.88648 -2.67185,22.11391v2.47666c0,0 0,2.5 -2.5,2.5c-2.5,0 -2.5,-2.5 -2.5,-2.5v-2.47666c0.01941,-7.99379 0.99403,-16.50023 3.07958,-24.29759c-8.23219,-5.51014 -16.57881,-11.13643 -25.25014,-15.85535l-1.30287,-2.40594c0,0 0,-2.5 2.5,-2.5z" fill="#ff0000" stroke-width="0.5"/><path d="M380.05073,102.9821c1.11803,2.23607 -1.11803,3.3541 -1.11803,3.3541l0.0213,-0.07269c-2.32666,1.86041 -4.50548,3.85142 -6.69648,5.80303c3.88707,7.54679 5.76362,16.09327 4.99306,24.75236c3.30384,-0.81463 6.58956,-1.27101 10.03736,-1.27101c1.81585,0 4.82842,-0.18024 6.51005,0.68986c1.78978,0.92605 2.97005,2.72928 4.54555,3.98574l1.78838,1.04677c0,0 2.14373,1.28624 0.85749,3.42997h0.00001c-1.28624,2.14373 -3.42997,0.85749 -3.42997,0.85749l-2.33938,-1.42989c-1.31621,-1.05594 -2.26309,-2.57595 -3.70998,-3.44424c-1.20738,-0.72456 -2.81403,-0.1357 -4.22214,-0.1357c-3.59895,0 -6.99691,0.55831 -10.45816,1.55492c0,0 -0.15491,0.04426 -0.39731,0.07098c-0.32798,1.50614 -0.73985,3.01016 -1.23893,4.50742c-4.12048,12.36142 -11.72192,23.60845 -22.26776,29.54884c4.06878,1.84851 8.27874,4.3102 12.41364,5.67134c1.62239,0.53407 3.35026,0.70435 4.97078,1.24408c1.48997,0.49625 2.72616,1.84513 4.29378,1.93903c2.19449,0.13144 4.91418,-4.43539 5.95627,-5.47508c4.00965,-4.00044 9.06828,-6.86672 12.59935,-11.33948l-0.06041,-0.69571c0,0 0.60634,-2.42536 3.0317,-1.81902l-0.00003,0.00002c2.42536,0.60634 1.81902,3.0317 1.81902,3.0317l-0.88596,2.6065c-3.73034,4.61318 -8.83633,7.60905 -12.99279,11.776c-2.99473,3.00229 -4.74231,6.78012 -9.72924,6.90821c-2.00751,0.05156 -3.70791,-1.55316 -5.61285,-2.18874c-6.42099,-2.14235 -12.49783,-4.82104 -18.76917,-7.50382c0,0 -1.44103,-0.61758 -1.5517,-2.01578c-5.55114,2.15337 -11.78945,2.89836 -18.65211,1.74394c-1.88011,-0.53501 -3.75231,-1.10046 -5.60689,-1.71819l-2.10062,-0.70021c-6.53242,-0.04689 -11.87384,-0.65539 -16.36808,-1.9189c-0.73921,0.68351 -1.79233,0.68351 -1.79233,0.68351c-3.91521,-0.05078 -7.83083,0.97134 -11.81517,1.2335c-3.28823,0.21635 -6.6199,-0.22212 -9.90664,0c-7.44192,0.50294 -14.93264,1.01768 -22.40544,1.18624c1.3755,1.0208 2.68555,2.20327 3.74315,2.85534c7.38402,4.55269 15.57293,7.74649 23.06071,12.15976l2.04888,0.30188c0,0 2.46598,0.411 2.05499,2.87698c-0.411,2.46598 -2.87698,2.05499 -2.87698,2.05499l-2.90444,-0.52367c-6.94654,-3.87423 -13.94847,-7.54102 -20.95836,-11.28459c-1.92421,-1.02761 -3.74154,-2.24526 -5.57615,-3.42542c-1.45587,-0.93652 -4.80531,-2.00751 -5.99547,-3.46112c-0.05242,-0.06403 -0.10381,-0.12876 -0.15423,-0.19415l-0.02856,0.02856l-2.06388,-2.06388c-0.45241,-0.45241 -0.73223,-1.07741 -0.73223,-1.76777c0,-1.38071 1.11929,-2.5 2.5,-2.5h3.30221c8.88198,0.01579 17.8171,-0.65067 26.67513,-1.2335c3.28823,-0.21635 6.6199,0.22212 9.90664,0c1.87382,-0.12664 3.6985,-0.38557 5.51497,-0.63461c-7.34313,-4.74403 -11.97762,-12.72557 -17.17345,-24.83302c-0.85419,-2.27656 -1.62323,-4.47845 -2.29885,-6.61373c-0.42764,-0.02524 -0.85968,-0.05087 -1.29647,-0.07817c-11.33985,-0.70874 -21.92822,1.77963 -30.89227,8.95086l-1.71285,1.28616c0,0 -2,1.5 -3.5,-0.5c-1.5,-2 0.5,-3.5 0.5,-3.5l1.58937,-1.19051c9.80628,-7.84502 21.45762,-10.74891 33.84993,-10.0649c-4.74579,-18.62785 -1.0721,-32.2111 17.40153,-46.96413c19.05526,-12.2238 44.2916,-4.99641 62.22978,5.25751c5.49864,3.67492 10.17651,8.44009 13.74681,13.89585c2.00206,-1.82013 3.99457,-3.66175 6.10972,-5.35473l0.86611,-0.4951c0,0 2.23607,-1.11803 3.3541,1.11803zM362.62194,119.51912c0.71852,8.512 -0.94858,16.68139 -0.92174,25.1332v1.23833c0,0 0,2.5 -2.5,2.5c-2.5,0 -2.5,-2.5 -2.5,-2.5v-1.23833c0.02118,-7.69546 1.44604,-15.16037 1.06926,-22.861c-0.76042,0.09102 -1.92367,-0.04928 -2.53779,-1.52317c-0.96154,-2.30769 1.34615,-3.26923 1.34615,-3.26923c3.53228,-1.45583 6.54688,-3.59538 9.38859,-5.97489c-3.22441,-5.11186 -7.52864,-9.56583 -12.62109,-12.95271c-15.80577,-9.02844 -27.80137,-12.17258 -45.60195,-8.35687c-3.732,0.79999 -7.90478,0.65662 -11.0479,2.88219c-17.35354,13.90925 -20.02605,25.8807 -15.1173,43.28553c5.34749,0.45954 10.14595,1.36944 15.04737,4.62614v-0.00001c0,0 2.08013,1.38675 0.69338,3.46688c-1.38675,2.08013 -3.46688,0.69338 -3.46688,0.69338c-3.49626,-2.33949 -6.95413,-3.20912 -10.66312,-3.63559c0.47929,1.40962 0.9986,2.85484 1.5548,4.3389c8.72818,20.39215 14.35471,27.32591 38.13214,27.32591c0,0 0.9047,0 1.62563,0.54424v0.00001l1.22882,0.4096c1.69628,0.56586 3.40654,1.09068 5.12531,1.58401c20.25224,3.34025 33.71994,-12.51191 39.59449,-30.13556c3.38461,-10.15384 2.2538,-20.67399 -2.06472,-29.69736c-1.82437,1.49219 -3.71744,2.89415 -5.76345,4.1164z" fill="#ff0000" stroke-width="0.5"/><path d="M350.19897,163.27517c-1.28624,2.14373 -3.42997,0.85749 -3.42997,0.85749l-0.77764,-0.88206c-7.4165,-0.02354 -14.61181,3.27419 -21.87893,4.50653c0,0 -2.46598,0.411 -2.87698,-2.05499c-0.411,-2.46598 2.05499,-2.87698 2.05499,-2.87698c7.60113,-1.24102 14.92864,-4.55317 22.70093,-4.57456l3.35012,1.5946c0,0 2.14373,1.28624 0.85749,3.42997z" fill="#ff0000" stroke-width="0.5"/></g></g></svg>