<svg version="1.1" xmlns="http://www.w3.org/2000/svg" xmlns:xlink="http://www.w3.org/1999/xlink" width="168.20587" height="120.03824" viewBox="0,0,168.20587,120.03824"><g transform="translate(-233.26051,-110.55364)"><g stroke="none" stroke-miterlimit="10"><path d="M400.98969,166.37074c-1.38675,2.08013 -3.46688,0.69338 -3.46688,0.69338l-0.26258,-0.43969c-9.87791,-1.64632 -20.62302,-2.43375 -30.12124,1.12744c-1.67347,0.62744 -3.99232,2.73847 -5.3916,3.53861c-2.9777,1.70273 -5.61107,3.45258 -8.56936,5.30737c0,0 -2.12,1.325 -3.44499,-0.795c-1.325,-2.12 0.795,-3.44499 0.795,-3.44499c4.83481,-3.01131 9.58824,-7.21971 14.9334,-9.31618c10.17807,-3.99203 22.01349,-3.11711 32.62079,-1.34922l2.21408,1.21141c0,0 2.08013,1.38675 0.69338,3.46688z" fill="#000000" stroke-width="0.5"/><path d="M280.79591,214.1338c8.58109,2.59063 17.37196,4.75721 25.37485,8.5802c0.57607,0.05709 2.31743,0.40221 2.31743,2.48869c0,2.5 -2.5,2.5 -2.5,2.5l-1.53081,-0.26393c-1.45789,-0.7502 -3.14527,-0.93961 -4.67406,-1.53208c-1.87299,-0.72587 -3.39403,-2.23415 -5.30043,-2.86707c-2.51393,-0.83462 -5.5471,-0.92591 -8.12908,-1.61364c-2.87904,-0.76686 -5.49934,-2.04269 -8.31181,-2.90521c-2.61539,-0.80208 -6.33534,-1.1265 -8.70864,-2.48885c-0.04171,-0.02394 -0.08324,-0.04814 -0.12461,-0.07259l-0.00992,0.02646l-3.24756,-1.21784c-0.9763,-0.34031 -1.67684,-1.269 -1.67684,-2.36132c0,-1.30615 1.00167,-2.37835 2.27874,-2.49034l4.10026,-0.41003l0.00387,0.03872l0.12035,-0.04803c12.88445,-0.01042 24.21021,-1.87381 35.55087,-4.8291c-4.79144,-2.88464 -9.61779,-5.37182 -14.12121,-7.29998c0,0 -2.29787,-0.9848 -1.31306,-3.28266c0.41074,-0.95839 1.04989,-1.34575 1.65548,-1.47168c-7.75558,-4.8493 -14.35967,-11.22108 -18.96217,-20.43268c-8.39454,-19.84962 1.66924,-45.71644 20.73383,-55.16755c12.76227,-10.02603 52.84389,-7.70361 65.34394,2.3069c15.39886,15.39885 23.10587,38.07943 10.31946,57.3233c-2.6866,4.02991 -5.46802,8.73373 -9.07748,12.03054c-2.88774,2.6376 -6.5161,4.87032 -9.68918,7.17569c-0.56828,0.41288 -3.79861,3.09972 -4.25601,3.39001c-5.40095,3.42768 -11.50612,4.64123 -17.4318,3.55013c-0.03141,0.01213 -0.04886,0.01795 -0.04886,0.01795c-3.86547,1.2774 -7.63086,2.50077 -11.34624,3.64262c7.00306,5.03481 13.42768,10.72844 18.1023,16.57172c1.03609,0.81795 1.64325,2.46133 2.95103,2.64085c2.19999,0.30199 4.07243,-2.05857 5.52462,-2.99971c2.20685,-1.43022 4.50133,-2.7235 6.80712,-3.98806c9.26021,-5.07856 19.42396,-8.66364 28.20646,-14.54039l1.23833,-0.82555c0,0 2.08013,-1.38675 3.46688,0.69338c1.38675,2.08013 -0.69338,3.46688 -0.69338,3.46688l-1.23833,0.82555c-8.93783,5.93866 -19.17638,9.60898 -28.57561,14.76409c-4.71773,2.58749 -10.11341,8.22665 -15.91816,7.46207c-0.60763,-0.08004 -4.61286,-3.4043 -5.3045,-3.96357c-5.22369,-6.52961 -12.71592,-12.8892 -20.71868,-18.28511c-10.20949,2.89691 -20.24755,5.04703 -31.1874,5.86123zM321.38122,199.78273c0,0 -2.23606,-1.11803 -1.11803,-3.3541c1.11804,-2.23607 3.3541,-1.11803 3.3541,-1.11803l1.65111,0.82555c6.18618,3.11187 13.08032,2.67107 18.99896,-1.1081c1.44158,-0.92048 2.61673,-2.20779 3.99952,-3.21442c3.04659,-2.21785 6.51479,-4.34252 9.29854,-6.8587c3.29547,-2.97871 5.81941,-7.42535 8.25914,-11.08495c11.41512,-17.05931 4.14769,-37.18265 -9.49381,-50.82415c-10.72175,-8.56659 -48.70444,-10.48616 -59.31457,-1.82086c-16.63074,8.38109 -26.62658,31.10544 -18.89271,48.85213c8.55006,17.08739 25.09918,23.59776 42.27694,29.22562c0,0 0.70761,0.23587 1.22097,0.83645c0.09556,-0.03093 0.19116,-0.06192 0.28682,-0.09296zM309.46431,200.71823c1.13771,0.69103 2.27282,1.40317 3.40086,2.13447c0.44669,-0.13106 0.89386,-0.26357 1.34161,-0.39749c-1.59564,-0.56409 -3.17799,-1.14071 -4.74246,-1.73698z" fill="#000000" stroke-width="0.5"/><path d="M321.91005,199.99624c-0.09566,0.03104 -0.19529,0.16195 -0.29085,0.19288c-0.51336,-0.60058 -1.22248,-0.83654 -1.22248,-0.83654c-17.17776,-5.62786 -33.77147,-12.17509 -42.32153,-29.26248c-7.73387,-17.74669 2.28098,-40.52458 18.91172,-48.90567c10.61013,-8.6653 48.6564,-6.74155 59.37815,1.82504c13.6415,13.6415 20.92139,33.81887 9.50627,50.87818c-2.43973,3.6596 -4.97129,8.11967 -8.26676,11.09838c-2.78375,2.51618 -6.26161,4.65012 -9.3082,6.86797c-1.38279,1.00663 -2.56301,2.2972 -4.00459,3.21768c-5.91864,3.77917 -12.83485,4.22628 -19.02103,1.11441l-1.65326,-0.8255c0,0 -2.2404,-1.11821 -3.35844,1.11786c-1.11803,2.23607 1.12466,3.25433 1.12466,3.25433z" fill="#ff9500" stroke-width="0.25"/><path d="M331.25121,170.81267c-2.27627,-1.03373 -1.24254,-3.31 -1.24254,-3.31l0.04737,-0.04353c2.17565,-7.44297 4.52727,-14.748 5.33707,-22.48375c0,0 0.26085,-2.48635 2.74721,-2.22549c2.48636,0.26086 2.2255,2.74721 2.2255,2.74721c-0.84547,8.04135 -3.24947,15.6295 -5.5106,23.36488l-0.29399,0.70814c0,0 -1.03373,2.27627 -3.31,1.24254z" fill="#000000" stroke-width="0.5"/><path d="M353.55419,173.45679c-2.47397,-0.35985 -2.11412,-2.83382 -2.11412,-2.83382c1.22791,-8.44188 2.81231,-19.33462 4.04023,-27.7765c0,0 0.35985,-2.47397 2.83382,-2.11412c2.47397,0.35985 2.11412,2.83382 2.11412,2.83382c-1.22791,8.44187 -2.45582,16.88376 -3.68374,25.32563l-0.35649,2.45086c0,0 -0.35985,2.47397 -2.83382,2.11412z" fill="#000000" stroke-width="0.5"/><path d="M347.20196,187.48892c-1.5,2 -3.5,0.5 -3.5,0.5l-1.91887,-1.47056c-7.02524,-7.20768 -18.31303,-1.24162 -24.7393,3.89939c0,0 -1.95217,1.56173 -3.51391,-0.39043c-1.56174,-1.95217 0.39043,-3.51391 0.39043,-3.51391c8.68747,-6.94997 22.16869,-12.5824 31.39831,-3.53059l1.38334,1.0061c0,0 2,1.5 0.5,3.5z" fill="#000000" stroke-width="0.5"/><path d="M284.95282,163.8474c-1.38675,2.08013 -3.46688,0.69338 -3.46688,0.69338l-0.26258,-0.43969c-9.87791,-1.64632 -20.62302,-2.43375 -30.12124,1.12744c-1.67347,0.62744 -3.99232,2.73847 -5.3916,3.53861c-2.9777,1.70273 -5.61107,3.45258 -8.56936,5.30737c0,0 -2.12,1.325 -3.44499,-0.795c-1.325,-2.12 0.795,-3.44499 0.795,-3.44499c4.83481,-3.01131 9.58824,-7.21971 14.9334,-9.31618c10.17807,-3.99203 22.01349,-3.11711 32.62079,-1.34922l2.21408,1.21141c0,0 2.08013,1.38675 0.69338,3.46688z" fill="#000000" stroke-width="0.5"/></g></g></svg>