<svg version="1.1" xmlns="http://www.w3.org/2000/svg" xmlns:xlink="http://www.w3.org/1999/xlink" width="1023.87364" height="112.37212" viewBox="0,0,1023.87364,112.37212"><g transform="translate(165.79086,-283.12587)"><g stroke="none" stroke-width="0.5" stroke-miterlimit="10"><path d="M236.29264,312.93381c0.0037,-2.5 2.5037,-2.4963 2.5037,-2.4963l4.01351,0.00594c34.66615,0.05133 69.31448,1.99496 103.98279,1.99405c35,0 70,0 105,0c15.53132,0 31.06265,0 46.59397,0c10.85853,-1.14836 21.71338,-2.35056 32.56574,-3.62584c34.4025,-4.04267 68.96023,-6.86911 103.40749,-10.53372c34.61151,-3.68208 69.34475,-5.8456 103.95771,-9.60788c33.21844,-3.6107 69.21196,-6.97685 102.60105,-4.91566c3.3874,0.21128 6.77465,0.42484 10.16177,0.64045l7.00241,2.99721c-8.59815,10.01365 -27.9848,15.25913 -47.96833,18.27702c-4.30646,2.46104 -13.92887,2.705 -17.617,3.28164c-12.70622,1.98661 -25.3395,4.19526 -38.00649,6.17865c17.7572,-0.42131 35.49871,-0.69187 53.30168,-0.69187l6.46772,2.09954c-3.43339,2.73645 -7.72638,5.00123 -12.61628,6.88693c1.37257,0.0011 2.74508,0.00496 4.11748,0.01353c1.85697,0.01159 3.7567,-0.33167 5.57062,0.06599c1.59466,0.34959 2.9424,1.41522 4.4136,2.12283l4.52474,2.97934c-8.57961,9.13027 -27.59665,15.03438 -46.98079,19.01468c-23.18758,9.39783 -57.54757,11.80142 -77.81001,14.29259c-10.31082,1.26767 -20.63,2.34418 -30.95841,3.26526c5.08488,0.15798 10.17351,0.2593 15.27133,0.2593l7.46772,2.09954c-15.40994,12.18703 -73.774,11.45976 -95.23764,12.89067c-26.88305,1.73452 -53.76694,2.5471 -80.6776,3.2191c-19.98616,2.49676 -44.15724,3.36737 -55.37511,4.11775c-33.36868,2.22458 -66.83691,2.11901 -100.24956,1.00526c-16.0172,-0.53391 -31.93127,-1.62555 -47.82182,-2.95728c-8.68192,0.10477 -17.36466,0.23836 -26.04929,0.40865c-35.01526,0.68657 -70.01664,1.21601 -105.03841,1.21619c-34.65562,0.00018 -69.27752,0.83241 -103.90994,2.06929c-34.36087,1.22717 -68.67011,2.94337 -103.04724,3.67479c-34.36531,0.73118 -68.68482,2.25605 -103.0611,2.25605c-5.04523,0 -29.86287,0.80402 -32.2319,-3.45061c-3.03762,-5.45537 14.53449,-9.53473 17.07847,-10.31339c17.82701,-5.45648 35.71328,-8.33255 54.14227,-11.07243c30.84706,-4.58611 62.08409,-5.70793 93.2356,-6.51704c4.05576,-0.5372 8.13538,-1.03517 12.24792,-1.49188c6.09879,-0.86512 12.19964,-1.70689 18.30237,-2.52944c5.35368,-1.82555 11.26492,-3.18637 17.47923,-4.20485c-4.58138,-0.76958 -9.16301,-1.5259 -13.76256,-2.19072l-5.96712,-3.38199c1.07796,-1.11096 1.96917,-2.46102 3.07456,-3.53687c-11.8482,0.13954 -23.69328,0.28807 -35.52489,0.55356c-33.71227,0.75606 -67.34498,1.13567 -101.07395,1.13567c-1.66667,0 -3.33333,0 -5,0l-5,-2.5l0.17751,-0.08875c1.93218,-0.94963 4.61638,-1.74547 7.87062,-2.41125c0.65062,0 1.30125,0 1.95187,0c33.69168,0 67.28684,-0.37835 100.96179,-1.13441c24.75548,-0.5555 49.57079,-0.59537 74.34971,-1.11677c5.47494,-0.2159 11.10387,-0.37002 16.56978,-0.47993c0.32586,0.00558 0.65171,0.0112 0.97756,0.01686c0.7891,-0.02564 1.57813,-0.05201 2.3671,-0.07914c13.97282,-0.23997 26.40983,-0.20661 31.77407,-0.20661c24.37333,0 48.74665,0 73.11998,0c6.85052,-0.61506 12.65857,-1.09032 16.55682,-1.48015c2.00938,-0.20094 4.01911,-0.39636 6.02918,-0.58659c-4.17648,-0.28837 -8.35007,-0.60694 -12.52109,-0.95239c9.50309,-0.15093 19.00613,-0.30292 28.50912,-0.45707c4.38632,-0.35999 8.774,-0.69955 13.16283,-1.02214c2.46327,-0.21444 4.92678,-0.42631 7.39044,-0.63656c0.29673,0.01569 0.59345,0.03144 0.89016,0.04726c20.44775,-1.40954 40.9179,-2.4984 61.3905,-3.61708c22.557,-1.23244 45.09628,-2.51844 67.64983,-3.622c-19.82434,1.77443 -39.62949,3.71054 -59.44585,5.83353c-5.8176,0.62326 -11.63928,1.20601 -17.46381,1.76066c11.40745,-0.20541 22.81759,-0.30143 34.22879,-0.33941c-8.23073,0.45271 -16.46226,0.9098 -24.69616,1.35977c-6.96504,0.38059 -13.9298,0.75764 -20.89349,1.14506c11.80011,0.81038 23.59712,1.67376 35.39418,2.54589c-0.96461,0.00654 -1.9292,0.0136 -2.89378,0.02122c0.53079,0 1.06157,0 1.59236,0c0.53318,0 1.06646,0.00029 1.59984,0.00084c2.17672,0.16095 4.35345,0.32218 6.5302,0.48342c4.00107,0.2966 8.00069,0.59968 11.99831,0.91624c14.35355,-0.38893 28.70762,-0.73834 43.05766,-1.19634c3.97165,-0.04527 7.94141,-0.11484 11.90786,-0.21626c-1.76825,-0.00006 -3.53654,-0.00102 -5.30488,-0.00269c9.68226,-0.33388 19.36237,-0.72755 29.03892,-1.2265c3.24053,-0.16709 6.48061,-0.34137 9.72034,-0.52106c19.83151,-1.45745 39.66278,-2.88959 59.50317,-4.18876c4.6517,-0.03197 9.30349,-0.05173 13.95542,-0.05476c0.03809,-0.00002 0.07618,-0.00005 0.11427,-0.00008c6.88831,-0.34036 13.77854,-0.64457 20.67167,-0.8956c27.93813,-1.01746 55.83623,-2.37823 83.7321,-4.04455c-12.46753,1.45144 -24.93863,2.92319 -37.42359,4.2204c1.03222,-0.01335 2.06445,-0.02643 3.09666,-0.03919c12.92709,-1.61347 25.87273,-3.1144 38.85872,-4.43677c0.05906,-0.00954 0.11812,-0.01908 0.17719,-0.02862c5.44778,-0.33211 10.89555,-0.67579 16.3436,-1.03076c10.97532,-0.71511 21.94703,-1.31483 32.91893,-1.83828c-14.68645,2.26185 -29.34722,4.70371 -43.97192,7.07631c2.77504,-0.01163 5.54928,-0.02817 8.32281,-0.05073c-4.36097,0.28077 -8.72181,0.55427 -13.08264,0.82037c-0.0186,0.003 -0.03721,0.00599 -0.05581,0.00899c-13.0646,1.33597 -26.08861,2.84854 -39.09415,4.47279c4.54784,-0.14755 9.09266,-0.22677 13.63165,-0.21624l0.17567,0.07178c-4.60423,0.03871 -9.20851,0.08864 -13.81283,0.14515c-21.69152,2.70909 -43.33169,5.72886 -65.02316,8.75817c-2.17153,0.30326 -4.34295,0.60487 -6.5143,0.90483c-8.29625,0.57899 -16.57712,1.31516 -24.85285,2.10485c3.12974,0.0021 6.26004,0.00276 9.39101,0.00297c-11.61858,1.56265 -23.23809,3.07724 -34.86485,4.54255c2.3736,0.14012 4.74729,0.27949 7.12104,0.4182c-3.35153,-0.01231 -6.70269,-0.02846 -10.05362,-0.04967c-1.09399,0.13708 -2.18805,0.27372 -3.28218,0.40993c6.448,1.25992 12.93423,2.54175 19.43531,3.70119c16.04299,0.11318 32.08619,0.0859 48.12699,-0.20645c3.45654,-0.063 6.91318,-0.12644 10.36987,-0.19131c5.4958,0.3051 10.99107,0.60341 16.48611,0.89464c1.79786,-0.42554 3.59477,-0.8693 5.39162,-1.33355c7.39942,-0.16116 14.79855,-0.33838 22.19689,-0.54131c-2.72243,1.02931 -5.53094,1.98063 -8.39728,2.86274c10.17753,0.50815 20.35543,0.99087 30.53555,1.44635c-13.26278,0.47199 -26.5297,0.831 -39.79786,1.13229c-2.25608,0.56866 -4.52843,1.10243 -6.8045,1.60519c-6.56719,-0.34456 -13.13463,-0.69931 -19.70281,-1.06377c-1.32719,0.0249 -2.65437,0.04958 -3.98154,0.07412c0.42337,-0.07452 0.84652,-0.14956 1.26944,-0.22515c-14.46146,-0.80819 -28.92753,-1.61735 -43.39322,-2.4442c5.89934,0.85896 11.79879,1.54278 17.68097,1.94411c6.76553,0.4616 13.42558,0.52998 20.09996,0.80505c-0.6207,0.01135 -1.2414,0.02267 -1.8621,0.03399c-16.23014,0.29579 -32.46273,0.32092 -48.69508,0.20379c-9.31554,-1.65168 -18.59984,-3.55823 -27.77797,-5.31589c0.35903,0.00526 0.71805,0.01049 1.07708,0.01569c-0.48488,-0.02927 -0.96975,-0.05857 -1.45462,-0.08792c-1.19913,-0.22917 -2.39644,-0.4557 -3.59174,-0.6787c-1.92794,-0.06261 -3.83681,-0.19011 -5.73145,-0.36834c-0.87907,0.10534 -1.7582,0.21039 -2.6374,0.31516c-2.60783,-0.16141 -5.21545,-0.32406 -7.82283,-0.48804c-6.22382,-0.39143 -12.44631,-0.81518 -18.66805,-1.25728c-1.05769,0.05063 -2.11538,0.10099 -3.17309,0.15107c0.6768,-0.07747 1.35364,-0.15496 2.03053,-0.23246c-13.70214,-0.9785 -27.40083,-2.04188 -41.10227,-3.04104c1.76901,-0.07328 3.538,-0.14723 5.30695,-0.22184c-4.75672,-0.14429 -9.51356,-0.28358 -14.27046,-0.42106c-11.60978,-0.81679 -23.2225,-1.56413 -34.84194,-2.15133c-13.54676,-0.6846 -27.08907,-1.17744 -40.63293,-1.52315c-6.21094,0.22513 -12.42168,0.45535 -18.63215,0.6924c-23.88003,-0.65124 -47.75882,-1.07139 -71.65871,-1.44045c-1.20772,-0.03957 -2.41542,-0.07897 -3.62309,-0.11818c1.8148,-0.10383 3.62966,-0.20647 5.44459,-0.30768c-4.33006,-0.04762 -8.78372,-0.04644 -13.26876,0.05642c-0.08212,-0.00261 -0.16423,-0.00521 -0.24635,-0.00782c-0.03974,0.00547 -0.07949,0.01095 -0.11923,0.01643c-1.35078,0.03264 -2.70419,0.07463 -4.05769,0.1274c-6.05452,0.63729 -12.10843,1.28047 -18.16173,1.92929c4.46798,-0.27181 8.93595,-0.54378 13.40406,-0.81262c-7.99243,1.15237 -15.98613,2.36601 -24.01548,3.60169c-0.82364,0.12675 -1.71088,0.31729 -2.64505,0.54955c13.72073,-0.00011 27.44145,-0.00027 41.16218,-0.00023c-17.49361,1.01233 -34.98243,2.12583 -52.47603,3.14319c-0.25298,0.05818 -0.50515,0.11412 -0.75627,0.16751c-1.07137,0.53164 -2.10989,1.09428 -3.11255,1.68962c-1.47871,0 -2.95743,-0.00001 -4.43614,-0.00001l-1.55432,-1.29527c-0.21169,0.01179 -0.42338,0.02356 -0.63507,0.03531c0.11819,-0.08978 0.23693,-0.17901 0.35621,-0.26769l-1.16682,-0.97235l1.03028,-0.85857c0.65448,-0.49176 1.40188,-0.96855 2.23403,-1.43088c-0.19866,0.02194 -0.39733,0.04389 -0.59599,0.06584l0.33167,-0.27639c0.217,0 0.43399,0 0.65099,0c1.05664,-0.56407 2.23997,-1.10633 3.53472,-1.62772c0.99235,-0.05688 1.98469,-0.11412 2.97701,-0.17167c3.24067,-1.4936 6.70526,-2.73796 10.33438,-3.7726c1.27833,-0.29147 2.59098,-0.5738 3.9325,-0.84735c-0.22131,-0.00612 -0.44261,-0.01223 -0.66392,-0.01833c1.91007,-0.46901 3.85884,-0.88585 5.83829,-1.25586c0.94912,-0.10229 1.89826,-0.20445 2.84741,-0.30647c-0.37985,0 -0.7597,0 -1.13955,0c3.87415,-0.66685 7.85514,-1.16309 11.88429,-1.52776c2.07581,-0.28329 4.16155,-0.55241 6.24249,-0.80829c-23.43167,0.52497 -46.84873,1.22137 -70.286,2.20583c-3.75962,0.15766 -7.52091,0.29547 -11.28355,0.4169c-0.63785,-0.01108 -1.27572,-0.02203 -1.9136,-0.03284c-17.44987,-0.29576 -34.90575,-0.35814 -52.36221,-0.34709c4.92926,-2.28048 20.11565,-3.50322 36.71822,-4.15792c5.85156,-0.12313 11.7011,-0.27311 17.54734,-0.46308c27.98111,0.48548 55.94051,1.22827 83.90699,2.09719c8.25648,-0.97916 16.35017,-1.75411 23.35415,-2.38294c1.66024,0 3.32047,0 4.98071,0c6.43037,-0.65776 12.86145,-1.30848 19.29324,-1.95186c-0.5627,-0.03774 -1.12535,-0.07604 -1.68794,-0.11488c5.3271,-0.50416 10.65656,-0.9719 15.98802,-1.40946c0.6803,-0.01104 1.3606,-0.02208 2.0409,-0.03314c3.70655,-0.33761 7.41397,-0.66621 11.12193,-0.989c2.75976,-0.20285 5.51998,-0.399 8.28061,-0.5893c5.6667,0.30213 11.33185,0.62817 16.99578,0.97325c11.60801,-0.19797 23.21595,-0.40146 34.82381,-0.61251c0.10369,-0.00189 0.20738,-0.00376 0.31108,-0.00563c-6.16573,0.58714 -12.33465,1.14278 -18.50532,1.68164c2.38163,0.15886 4.7631,0.32024 7.14445,0.48378c-13.58384,0.75571 -27.16362,1.55084 -40.73345,2.48849c-0.28349,-0.01516 -0.56698,-0.03025 -0.85048,-0.04529c-0.48275,0.04124 -0.96549,0.08254 -1.44822,0.12392c0.38854,0 0.77709,0 1.16563,0c-2.26711,0.158 -4.53394,0.32005 -6.80046,0.48665c-3.74758,0.32639 -7.49459,0.65875 -11.24072,1.00037c-0.68756,0.01118 -1.37512,0.02235 -2.06269,0.0335c-5.56414,0.45738 -11.12609,0.94783 -16.68544,1.47846c0.25096,0.00067 0.5005,0.00102 0.74858,0.00102c0.7061,0 1.41218,0.00021 2.11822,0.00065c-1.32419,0.13242 -2.64836,0.26516 -3.97249,0.39821c15.13556,0.27251 30.26592,0.59217 45.39675,1.0043c6.20916,-0.23687 12.41859,-0.46695 18.62821,-0.69194c11.97856,0.30475 23.95589,0.72413 35.9361,1.28879c-11.57798,0 -23.15596,0 -34.73395,0c4.55074,0.15084 9.10174,0.31184 13.65316,0.48422c13.56737,0.51386 27.13666,0.93158 40.70631,1.32734c-3.58104,0.10796 -7.16196,0.22149 -10.74268,0.34288c-14.93099,0.50619 -29.86169,1.01789 -44.79123,1.55903c-20.72198,-0.52894 -41.44761,-0.71348 -62.1984,-0.71348c-7.43534,0 -16.5411,-0.35342 -26.27096,-0.46043c9.37779,-0.52298 18.75738,-1.0081 28.14024,-1.42512c8.80329,-0.39126 17.60739,-0.76111 26.41213,-1.11445c-6.42713,0 -12.85427,0 -19.2814,0c-8.88135,0 -17.7627,0 -26.64404,0c-3.99909,0.40919 -7.99791,0.82111 -11.99646,1.23568c-3.38564,0.43531 -6.76664,0.88713 -10.14557,1.35249c-0.71989,-0.02284 -1.43977,-0.0456 -2.15964,-0.06828c-0.67243,0.07063 -1.34486,0.14134 -2.01727,0.21211c-7.66294,0.29879 -15.32912,0.94338 -22.54185,2.19559c1.46005,-0.08867 2.92009,-0.17748 4.38012,-0.2663c-2.3349,0.25027 -4.66971,0.50138 -7.00443,0.75331c-3.50914,0.69475 -6.89371,1.54597 -10.09844,2.58533c1.28213,-0.00001 2.56426,-0.00002 3.8464,-0.00003c-3.41585,0.84928 -7.45906,2.25642 -11.31385,3.14296c-0.15723,0.00914 -0.31447,0.01828 -0.4717,0.02741c-0.09511,0.04646 -0.18997,0.09316 -0.28457,0.1401c-2.94691,0.62655 -5.7503,0.90237 -8.03756,0.33485c-0.35515,0.01989 -0.7103,0.03972 -1.06546,0.0595l-0.27886,-0.23238c0.08222,-0.06113 0.1647,-0.122 0.24744,-0.1826c-0.50663,-0.20738 -0.97978,-0.46834 -1.41426,-0.78975c0.31201,-0.29115 0.65595,-0.57731 1.03028,-0.85857l1.63804,-1.36504c-2.12723,0.23506 -4.25438,0.47076 -6.38146,0.70709c-8.18129,0.98109 -16.36079,1.96243 -24.53806,2.9538c1.65005,0.20623 3.30057,0.40916 4.95148,0.60948c-5.09199,0.16388 -10.18149,0.36361 -15.26452,0.64701c-3.09807,0.37953 -6.1958,0.7611 -9.29315,1.14522c-0.75361,-0.11044 -1.50704,-0.2221 -2.26028,-0.33506c-6.04668,0.52211 -12.07984,1.21477 -18.09271,2.15911c-1.64229,0.25792 -3.55319,0.69631 -5.60745,1.1918c0.93857,-0.02946 1.87714,-0.05903 2.81571,-0.08869c-1.75632,0.22707 -3.51251,0.45539 -5.26855,0.68505c-0.90807,0.22048 -1.83307,0.44259 -2.76554,0.65701c2.39852,0.12273 4.79905,0.24109 7.20018,0.39717c9.92973,0.64546 19.84641,1.44957 29.75561,2.33968c-16.071,0.50787 -32.14114,1.04238 -48.21307,1.51433c-1.6528,-0.15889 -3.30379,-0.34914 -4.9526,-0.58413l-2.86224,-1.39052c-2.93118,0.4051 -5.86192,0.81508 -8.79218,1.2304c-4.22024,0.46916 -8.40239,0.97726 -12.55812,1.52461c-13.14364,0.34026 -26.30319,0.73415 -39.44208,1.42268c12.9975,-2.50692 25.93518,-4.66887 39.12516,-6.41592c2.88678,-0.07498 5.77283,-0.14727 8.65777,-0.21939c4.54611,-0.11364 9.09198,-0.23535 13.63768,-0.36311c2.55639,-1.29916 5.32195,-2.43873 8.25485,-3.43882c7.93183,-1.06908 15.86682,-2.10571 23.80455,-3.11896c-0.61641,-0.10965 -1.23265,-0.22046 -1.8487,-0.33248c-1.49259,-0.25074 -2.98459,-0.50278 -4.47661,-0.75341c5.76929,-0.94555 11.7998,-1.59604 17.88789,-2.04941c2.01544,0.31721 4.03239,0.62419 6.05068,0.9222c5.05228,-0.62578 10.10555,-1.24483 15.15968,-1.85947c10.43584,-0.22266 20.31745,-0.18993 28.54355,-0.43149c3.76363,-0.20358 7.52691,-0.4142 11.28994,-0.62989c3.66122,-1.47436 8.21342,-2.7819 13.31139,-3.94426c1.07559,-0.30664 2.16564,-0.59486 3.26859,-0.86569c-1.53345,-0.04227 -3.0669,-0.08403 -4.60037,-0.12525c3.47935,-0.37868 6.95891,-0.75556 10.43866,-1.1306c0.56683,-0.10596 1.13618,-0.20807 1.70786,-0.30647c-9.77061,0 -19.54123,0 -29.31184,0c-9.08984,0 -18.14475,0.13738 -27.19047,0.41248c-2.31335,-0.04365 -4.62682,-0.08561 -6.94045,-0.1258c-18.73719,0.60468 -37.50762,0.80312 -56.27023,1.02409c0.43927,-0.42753 0.91237,-0.81176 1.44445,-1.12047c0.16596,-0.09629 0.34949,-0.1908 0.54998,-0.28355c-17.20557,0.01088 -34.4117,0.09309 -51.6132,0.09344c-16.31064,0.00033 -87.60188,5.10387 -96.98008,0.49982c0.05844,-0.02973 0.11762,-0.05932 0.17751,-0.08875l4.82249,-2.41125c1.01604,0 2.03209,0 3.04813,0c22.4264,-4.58817 71.92493,-2.99947 88.93184,-2.99982c34.68212,-0.00071 69.38301,-0.33337 104.06024,0.25438c0.28035,0.00475 0.56071,0.00953 0.84106,0.01433c1.12268,-0.02258 2.23849,-0.04329 3.34466,-0.06228c2.90653,-0.09994 5.8122,-0.21021 8.71686,-0.33242c35.012,-1.47064 69.9792,-2.29947 105.01688,-2.87386c0.4084,-0.00648 0.81681,-0.01297 1.22521,-0.01945c-23.25819,-1.92627 -46.43663,-4.68818 -69.59223,-7.70848c-33.24192,-4.3359 -66.2875,-9.75022 -99.18168,-16.34277c-12.29137,-3.50599 -24.55144,-5.2307 -36.9918,-7.99803c-12.93149,-2.87658 -26.04112,-9.09772 -39.41917,-8.93159c0,0 -2.5,0 -2.5,-2.5c0,-2.5 2.5,-2.5 2.5,-2.5c13.91387,0.13209 27.11672,6.08952 40.58083,9.06841c12.4477,2.75401 24.71327,4.48304 37.0082,8.00197c32.72474,6.53074 65.58478,11.93111 98.65032,16.24401c33.77945,4.40602 67.6079,8.26612 101.66345,9.75815c5.44982,0.23896 10.89787,0.50459 16.34447,0.79255c23.33027,-1.99098 46.67386,-3.83598 69.95203,-6.32984c34.50996,-3.69715 68.98629,-6.82975 103.58866,-9.52625c7.17962,-0.66283 14.35649,-1.33065 21.53094,-2.00901c-33.77297,0 -67.54594,0 -101.31891,0c-34.67083,-0.0009 -69.32159,-1.94273 -103.99019,-1.99406l-4.01351,-0.00594c0,0 -2.5,-0.0037 -2.4963,-2.5037zM498.65108,317.43752c-23.8601,2.52158 -47.73803,4.78437 -71.64641,6.99099c-14.69679,1.14576 -29.37078,2.36979 -44.03427,3.68229c12.23162,-0.5985 24.46745,-1.14333 36.71258,-1.59686c34.01433,-1.25979 68.00184,-2.96008 102.02602,-3.93219c34.98293,-0.99951 69.9713,-1.7978 104.95043,-2.91722c14.96255,-0.47863 29.92044,-1.07793 44.8784,-1.68689c10.45036,-1.30271 20.89858,-2.67835 31.33388,-4.10919c-15.20238,0.6913 -30.41163,1.27935 -45.61998,1.94172c-34.47813,1.50162 -68.95497,1.62737 -103.4591,1.62737c-18.38052,0 -36.76103,0 -55.14155,0zM137.95795,346.87459c-14.7827,-0.39744 -29.56654,-0.74554 -44.35579,-1.02459c-12.21458,0.37148 -24.41241,0.99409 -36.65682,1.86869c-3.48348,0.24882 -9.37326,1.60239 -14.75324,2.26457c3.39961,0.5508 6.79425,1.13182 10.19256,1.70279c4.17558,0.75915 8.35942,1.46288 12.54984,2.12241c7.09946,-0.52869 14.27722,-0.78935 21.21036,-0.93728c9.45083,-1.14933 18.90471,-2.28328 28.36091,-3.41715c7.81639,-0.86853 15.63378,-1.72851 23.45219,-2.57944zM-40.10808,370.49996c-17.86052,0.93596 -35.68287,2.4164 -53.37517,5.04676c-14.54197,2.16199 -29.79717,3.52779 -43.8552,7.92378c-4.78154,1.4952 -9.56143,2.98977 -14.36142,4.42485c-1.19132,0.35618 -3.27704,1.09822 -5.19058,1.7483c6.84952,-0.34345 20.24394,0.79387 23.68308,0.79387c34.34073,0 68.62492,-1.5245 102.95474,-2.25492c34.35308,-0.73092 68.63829,-2.44642 102.97515,-3.67274c34.69188,-1.239 69.37325,-2.07229 104.08837,-2.07247c25.47221,-0.00013 50.93361,-0.28059 76.39743,-0.6978c-18.83433,-0.51931 -37.66149,-1.28754 -56.48865,-2.16322c-3.54977,-0.16511 -7.09931,-0.32516 -10.64854,-0.48322c-17.4816,0.82315 -35.73091,1.73402 -51.70176,-1.79981c-1.53202,-0.33899 -3.05168,-0.65877 -4.52576,-0.99506c-9.73003,-0.61302 -19.45471,-1.33402 -29.17244,-2.22687c-8.58653,0.43642 -17.16985,0.87042 -25.74781,1.25167c-33.55451,1.49131 -67.42768,2.25335 -100.85715,5.59956c-17.68596,1.7686 -35.38822,2.81113 -53.08039,4.41561l-0.31396,-1.10448c-1.81453,-0.13073 -3.60986,-0.51997 -5.37892,-1.25736l5.38865,-2.6289c0.43958,-0.04006 0.87916,-0.07977 1.31876,-0.11913c3.96282,-3.09908 13.7039,-4.71991 17.38017,-5.51665c6.88341,-1.49181 13.70561,-2.89908 20.51141,-4.21176zM305.91398,371.43752c-17.5764,1.34475 -35.05027,2.95547 -52.55051,4.31893c4.72637,0.43382 9.4467,0.87883 14.16309,1.32668c11.08508,0.22659 22.17328,0.35439 33.26608,0.35439c34.63013,0 69.31336,-0.01879 103.90635,-1.74844c21.43497,-1.07175 42.79113,-2.38125 64.11314,-4.25844c-27.67316,0.00589 -55.34632,0.00689 -83.01948,0.00689c-26.62622,0 -53.25243,0 -79.87865,0zM545.6424,370.86227c-1.80226,2.48364 -4.00657,4.78661 -6.61802,6.25074c-0.49581,0.27798 -1.03661,0.54808 -1.61943,0.81055c18.10252,-0.56922 36.19672,-1.3177 54.29049,-2.48512c22.19549,-1.47971 44.72734,-1.62092 66.71483,-4.97152c0.56772,-0.08651 1.29099,-0.23396 2.13005,-0.421c-9.61345,-0.34728 -19.21837,-0.85544 -28.85117,-1.22593c-4.14224,-0.15932 -8.28377,-0.32347 -12.42471,-0.49234c-9.54723,0.50122 -19.1034,0.91469 -28.66919,1.2684c-14.97223,0.55362 -29.96049,0.97096 -44.95286,1.26621zM788.81192,338.62071c0.0734,-0.02152 0.14677,-0.04308 0.22013,-0.06469c5.67804,-1.67249 15.90542,-8.54311 22.91541,-9.43458c-0.55788,-0.32616 -1.13121,-0.60972 -1.75653,-0.74992c-1.44085,-0.32306 -2.95279,0.05566 -4.42938,0.06599c-4.99932,0.03499 -10.00054,0 -15,0c-2.39451,0 -4.79025,-0.00829 -7.18683,-0.02078c-22.53912,4.43995 -49.56321,4.82794 -66.34511,6.35425c-34.43033,3.13144 -68.84076,3.6648 -103.39249,3.66638c-6.20743,0.00009 -12.41492,0.0319 -18.62247,0.08409l6.91475,2.8254c-2.55177,2.90896 -5.6265,5.52133 -9.10429,7.87427c3.21212,-0.10696 6.425,-0.22308 9.63884,-0.34912c34.9741,-1.37153 69.80733,-5.08157 104.81084,-6.25729c24.69229,-0.82792 49.39076,-3.14746 74.00971,-5.15815l7.62316,0.90324c-0.09785,0.08733 -0.19643,0.17429 -0.29573,0.26089zM577.87976,349.66066c4.95485,-2.41439 9.96888,-4.8606 14.79042,-6.22575c-22.23764,0.16896 -44.58548,2.29655 -66.75171,3.99915c-5.35958,0.21483 -10.71004,0.52258 -16.05412,0.89554c-5.15413,0.71199 -10.30789,1.41463 -15.46184,2.10782c1.46322,0.0001 2.92659,0.0001 4.39012,0.0001c26.40521,0 52.73098,-0.11977 79.08713,-0.77686zM414.89152,349.73594c1.93789,0.37376 3.87181,0.74914 5.80731,1.1102c0.94508,-0.0477 1.89016,-0.09564 2.83523,-0.14382c3.31233,-0.16856 6.62146,-0.36934 9.92805,-0.59575c7.61503,0.11588 15.22953,0.19119 22.8452,0.24013c17.69581,-2.21876 35.37373,-4.55197 53.0561,-6.99538c5.41364,-0.37946 10.83383,-0.69203 16.26343,-0.90875c18.50517,-1.42454 37.15263,-3.17103 55.74979,-3.77565c-14.14786,0.17372 -28.29619,0.40955 -42.44528,0.57328c3.35601,-0.46262 6.71166,-0.92248 10.06736,-1.37842c-5.7423,0.2379 -11.48596,0.46164 -17.23131,0.67087c-6.91372,0.25179 -13.82452,0.55713 -20.73339,0.89883c-0.07709,0.00006 -0.15417,0.00011 -0.23126,0.00017c-4.59248,0.003 -9.18482,0.02228 -13.77706,0.05354c-19.79237,1.29667 -39.57566,2.72557 -59.35921,4.17954c-3.26243,0.18105 -6.52521,0.35661 -9.78845,0.52487c-11.80621,0.60877 -23.61767,1.06104 -35.43188,1.43924c-1.33352,0.01573 -2.66725,0.02873 -4.00114,0.03928c0.18833,0.02282 0.37665,0.04572 0.56497,0.0687c-13.40199,0.4136 -26.80719,0.74218 -40.21193,1.10607c-4.07955,-0.32344 -8.16131,-0.63252 -12.24473,-0.93477c-2.11602,-0.15674 -4.23202,-0.31348 -6.34801,-0.46996c-0.47096,-0.00043 -0.94185,-0.00065 -1.41267,-0.00065c-4.63107,0 -9.26214,0 -13.8932,0c1.6589,0.07819 3.31786,0.15916 4.97689,0.243c7.59803,0.38397 15.19319,0.83635 22.78652,1.33181c-2.71268,0.07639 -5.42532,0.15497 -8.13789,0.23675c6.72606,0.19617 13.45221,0.38694 20.17825,0.58135c8.02244,0.56424 16.04346,1.16165 24.06432,1.76236c-5.06834,-0.54741 -10.14216,-1.04385 -15.22042,-1.50387c11.10892,0.32923 22.21733,0.67918 33.32436,1.09055c6.00843,0.22253 12.01484,0.40571 18.02006,0.55648zM303.99128,360.68404c-29.37647,0.92304 -58.75881,1.5329 -88.13329,2.54581c-21.2395,0.7324 -42.47901,1.17118 -63.72006,1.61066c4.2885,0.58861 8.57733,1.15443 12.86678,1.70006c4.26325,-0.06666 8.52597,-0.10305 12.78792,-0.10305c34.33333,0 68.66667,0 103,0c8.31178,0 16.62356,0 24.93534,0c0.83643,-0.06402 1.67309,-0.12744 2.50999,-0.19019c14.73233,-1.10365 29.41036,-2.4652 44.06989,-3.96915c-13.52357,-0.37696 -27.04639,-0.81166 -40.5711,-1.31745c-2.58163,-0.09655 -5.16346,-0.18862 -7.74547,-0.27669zM390.07543,363.19153c-9.81737,1.11352 -19.62948,2.20703 -29.44701,3.24599c8.38807,0 16.77614,0 25.16421,0c32.86983,0 65.73966,-0.00141 98.60949,-0.01075c-4.0421,-0.58713 -8.08443,-1.25497 -12.1209,-1.97065c-18.79659,-0.13563 -37.59286,-0.46202 -56.38465,-0.77977c-8.60879,-0.14557 -17.21561,-0.30603 -25.82115,-0.48483zM597.46796,362.39072c7.25489,0.3246 14.51092,0.63537 21.76873,0.93165c19.86584,-1.04583 39.69283,-2.47394 59.48733,-4.53969c-17.55866,0.94736 -35.15018,1.51904 -52.71853,2.39735c-9.50966,0.47532 -19.02253,0.87208 -28.53754,1.2107zM779.08793,323.39019c2.03694,-0.35323 4.06595,-0.7319 6.08556,-1.13943c1.71986,-0.34704 4.84815,-1.53048 8.30816,-2.75705c-21.55488,0.1659 -43.04927,0.68314 -64.62247,1.33687c-9.17132,0.27792 -18.34037,0.60524 -27.50822,0.95647c-10.69822,1.35812 -21.38685,2.90707 -32.06192,4.55112c23.7828,-1.13463 47.56652,-1.91086 71.38985,-2.72696c12.78204,-0.43694 25.60394,-0.30589 38.40904,-0.22104zM28.49915,368.29691c-6.89938,0.2026 -13.7991,0.39368 -20.69935,0.56617c-2.82096,0.07052 -5.64301,0.14112 -8.46579,0.2142c-17.70533,2.33197 -34.93114,5.37643 -52.58028,9.15733c8.94021,-0.688 17.87978,-1.39365 26.81497,-2.28717c30.16851,-3.01396 60.69278,-3.94314 91.02343,-5.18888c-5.98386,-0.48945 -11.97127,-0.93697 -17.96346,-1.32643c-6.05524,-0.39356 -12.10441,-0.55601 -18.12951,-1.13522zM411.43591,380.35075c25.15126,-0.14827 50.29312,-0.49689 75.44774,-1.11176c4.0339,-0.0986 8.06703,-0.19505 12.09947,-0.29198c8.15838,-0.98951 16.31905,-2.18148 24.53107,-3.66464c3.63296,-0.65614 9.79548,-0.61534 13.0467,-2.52036c0.97294,-0.57008 1.53016,-1.17724 1.96532,-1.76872c-7.92918,0.1359 -15.859,0.23828 -23.78768,0.30924c-2.6102,0.37617 -5.09982,0.73514 -7.43786,1.08651c-31.88802,3.99142 -63.79345,6.28013 -95.86476,7.96171zM363.42941,353.46838c-2.98768,-0.21787 -5.9755,-0.43269 -8.96351,-0.64291c-20.27963,-0.58611 -40.56021,-1.13937 -60.8365,-1.90732c-11.09193,-0.4201 -22.18136,-0.77235 -33.27053,-1.07476c-13.82652,0.52774 -27.65174,1.08928 -41.47497,1.70365c-12.10784,0.53813 -24.21021,1.18994 -36.31029,1.89016c9.74936,0.00003 19.49872,0.00016 29.24807,0.00049c30.72306,0.71278 61.46302,1.1976 92.1776,2.24368c4.89042,-0.15388 9.78068,-0.31648 14.67071,-0.49112c14.92259,-0.53291 29.84212,-1.1039 44.7594,-1.72186zM531.25507,359.06185c7.29252,-0.13686 14.58526,-0.28008 21.87773,-0.43891c3.89154,-1.00546 7.7828,-2.10705 11.68274,-3.32785c0.37453,-0.11724 0.75092,-0.24121 1.12904,-0.37132c-22.37151,0.4272 -44.73328,0.51374 -67.15195,0.51374c-10.71824,0 -21.42799,-0.00004 -32.13393,-0.03935c20.70367,1.20976 41.41249,2.3685 62.11188,3.5253c0.82817,0.04628 1.65633,0.09241 2.48448,0.13839zM802.36116,301.12352c8.89731,-1.26999 17.74209,-2.89941 26.49587,-5.13419c3.75492,-0.95861 11.47459,-5.004 17.52149,-6.88692c-1.92378,-0.11846 -3.84751,-0.23771 -5.77119,-0.35769c-33.08372,-2.08578 -68.83252,1.31815 -101.74949,4.89608c-34.61675,3.76269 -69.35387,5.92663 -103.96907,9.6091c-30.49653,3.24431 -61.07982,5.83093 -91.56507,9.18761c3.48965,0 6.97929,0 10.46894,0c34.43159,0 68.83588,-0.12416 103.24154,-1.62263c34.23368,-1.49098 68.47229,-2.60277 102.62612,-5.3719c1.73149,-0.25939 3.46429,-0.50578 5.19907,-0.73204c12.44796,-1.62352 24.994,-2.48072 37.50179,-3.58742zM608.86526,325.21094c-29.00265,0.84968 -58.00993,1.54009 -87.01347,2.36877c-34.01008,0.97172 -67.98352,2.67154 -101.98376,3.93081c-26.5526,0.98343 -53.06137,2.39655 -79.5785,3.85506c22.16976,-0.07379 44.34355,0.07147 66.50951,0.0591c30.01959,-0.01676 60.03034,-0.73196 90.04501,-0.93827c13.17953,-0.86301 26.36309,-1.66736 39.55343,-2.38148c24.2251,-1.31154 48.35631,-4.08287 72.46777,-6.89399zM401.70761,347.42239c-4.22773,-0.60941 -8.4605,-1.16845 -12.69764,-1.68557c1.14541,-0.03535 2.2908,-0.07132 3.43617,-0.10798c13.20619,-0.15579 26.39172,-0.57937 39.50607,-1.54355c1.90476,-0.14036 3.80951,-0.28058 5.71426,-0.42057c24.46103,-1.35745 48.90219,-3.02326 73.36753,-4.23325c9.29949,-0.00722 18.59858,-0.08368 27.89734,-0.19128c-7.74467,1.06759 -15.49118,2.14989 -23.24425,3.23264c-2.10799,0.29439 -4.21587,0.58722 -6.32369,0.87849c-25.34621,1.77658 -50.54884,5.01928 -75.9013,6.75525c-6.18954,-0.09419 -12.37943,-0.21519 -18.57059,-0.37063c-4.35364,-0.83968 -8.72733,-1.67115 -13.18391,-2.31355zM76.71221,366.78258c6.49403,0.58334 12.98485,1.20362 19.47402,1.8404c1.53083,0.15022 3.06184,0.29588 4.59303,0.43724c5.08462,-0.25826 10.17035,-0.51715 15.25675,-0.76627c-0.33414,-0.79108 -0.57625,-1.66509 -0.7149,-2.63431c-0.85545,0.02168 -1.7109,0.04365 -2.56636,0.0659c-12.0154,0.31262 -24.02921,0.67739 -36.04254,1.05703zM95.49292,357.98429c6.79194,0.82413 13.59033,1.60398 20.3881,2.38656c1.16936,-1.13536 2.41234,-2.1983 3.72222,-3.1933c-1.56874,0.08707 -3.13753,0.17304 -4.70639,0.25779c-6.46653,0.19049 -12.93723,0.34082 -19.40394,0.54895zM633.63993,333.36377c27.75578,-0.22573 55.43965,-1.05317 83.13681,-3.57222c2.28626,-0.20794 4.58094,-0.40487 6.88202,-0.59556c-29.00952,0.99902 -57.97382,2.08104 -86.96355,3.96989c-1.01843,0.06636 -2.03686,0.13232 -3.05527,0.19789zM763.16121,344.46687c0.54042,-0.19538 1.08693,-0.39569 1.63799,-0.59847c-19.0293,1.59258 -38.09647,3.10219 -57.15657,3.7435c-34.99408,1.1754 -69.81787,4.88509 -104.78276,6.25627c-6.38333,0.25033 -12.7629,0.46165 -19.14024,0.63986c-2.67565,1.28716 -5.48375,2.47481 -8.38994,3.5736c16.8148,-0.46122 33.62551,-1.05525 50.42615,-1.89537c34.10913,-1.70525 68.30942,-2.24055 102.18024,-6.65764c11.61172,-1.51428 23.49457,-2.98976 35.22514,-5.06175zM218.91085,343.43816c20.03376,0.01229 40.04484,0.20154 60.05247,0.71057c7.49995,-0.27175 15.00019,-0.53609 22.50061,-0.79606c-10.21288,-0.71837 -20.42762,-1.40363 -30.64628,-2.02697c-12.00841,0.20474 -24.01691,0.40359 -36.02548,0.59883c-5.28542,0.48199 -10.56907,0.98241 -15.85004,1.5105c-0.01043,0.00104 -0.02085,0.00209 -0.03128,0.00313zM184.66821,374.02605c0.18419,-0.00727 0.36834,-0.01454 0.55246,-0.02181c-6.83383,-0.77581 -13.66494,-1.59196 -20.49447,-2.45891c-7.00488,0.11207 -14.01118,0.30576 -21.01774,0.55375c13.6456,0.73783 27.30032,1.32107 40.95975,1.92696zM221.95705,372.81992c7.41733,-0.3752 14.81628,-0.84889 22.20659,-1.3824c-12.02414,0 -24.04829,0 -36.07243,0c4.62002,0.47294 9.24185,0.93266 13.86585,1.3824zM363.5471,348.08891c-2.94794,-0.08737 -5.89591,-0.17327 -8.8439,-0.25848c-4.01305,-0.28225 -8.02645,-0.55619 -12.04036,-0.8181c2.04505,-0.05759 4.09012,-0.11392 6.1352,-0.16944c4.91987,0.39006 9.83654,0.80101 14.74906,1.24602zM330.39247,340.43836c20.44836,0.02131 41.04249,0.43746 61.58616,0.20332c2.2011,-0.07025 4.4021,-0.14306 6.60299,-0.21895c-22.82675,-0.02154 -45.66028,-0.16114 -68.48756,-0.00643c0.09947,0.00735 0.19894,0.01471 0.29842,0.02206zM123.13084,360.46746c28.79948,-0.67852 57.59486,-1.11045 86.38993,-2.03004c-27.764,0.00086 -55.528,0.00017 -83.292,0.0001c-1.07508,0.63834 -2.10895,1.31428 -3.09793,2.02994zM525.90574,364.36139c0.42541,-0.07378 0.85058,-0.14805 1.27552,-0.22284c-1.44763,0.02676 -2.89525,0.05334 -4.34285,0.0798c1.02197,0.04212 2.04427,0.08908 3.06734,0.14304zM625.60687,328.30214c-3.42965,0.39218 -6.85937,0.78995 -10.28935,1.18927c1.56967,-0.09376 3.13933,-0.18849 4.70899,-0.28418c1.8595,-0.30042 3.71963,-0.60228 5.58036,-0.90508zM177.2529,348.03351c-0.12184,0.00279 -0.24369,0.00566 -0.36557,0.00861c-2.93942,0.40511 -5.8773,0.82045 -8.81536,1.24407c5.66803,-0.34105 11.33629,-0.67708 17.0051,-1.00142c-2.60816,-0.08467 -5.21621,-0.16846 -7.82417,-0.25126zM559.20276,365.56012c-2.77903,-0.14212 -5.55807,-0.28611 -8.33716,-0.43192c-1.07709,0.23792 -2.15501,0.46889 -3.23244,0.69333c3.85691,-0.07891 7.71351,-0.16597 11.5696,-0.26141zM70.93525,359.77652c-7.71733,0.95708 -15.43236,1.93005 -23.14473,2.92715c12.01504,-0.3797 24.02968,-0.77429 36.04503,-1.1465c-4.30481,-0.56171 -8.60551,-1.15127 -12.90029,-1.78066zM123.96499,353.43751c0.47356,0 0.94711,0 1.42067,0c0.1194,-0.06577 0.23918,-0.13114 0.35932,-0.19611c-0.59334,0.06532 -1.18667,0.13069 -1.77999,0.19611zM444.50325,359.14024c-0.12587,-0.0241 -0.25172,-0.04818 -0.37754,-0.07223c-3.98728,-0.2413 -7.97418,-0.48514 -11.96059,-0.73187c-1.5102,0.17996 -3.02061,0.35907 -4.53123,0.53734c5.62283,0.09361 11.24599,0.18432 16.86937,0.26676zM253.96643,340.35889c-0.3777,0.0261 -0.75539,0.05231 -1.13307,0.07863c0.86463,0 1.72926,0 2.59389,0c-0.48693,-0.02638 -0.97387,-0.05259 -1.46082,-0.07863zM122.06384,368.00395c3.85426,-0.18168 7.70881,-0.35541 11.56344,-0.51665c-4.47552,-0.54456 -8.9541,-1.06953 -13.43372,-1.5883c0.40173,0.77029 1.04787,1.47014 1.87027,2.10496zM376.9055,357.90178c4.31313,0.09954 8.62649,0.19403 12.94018,0.28389c4.2172,-0.47856 8.4354,-0.96073 12.65546,-1.44378c-8.53132,0.40395 -17.06315,0.79003 -25.59564,1.15989z" fill="#000000"/><path d="M372.3972,326.93651c0,2.5 -2.5,2.5 -2.5,2.5l-1.21386,-0.15126c3.71168,2.4219 7.39341,4.88566 10.96757,7.512c4.51433,3.11369 10.29438,7.27168 15.6719,8.70614c1.14904,0.30651 0.1065,-2.37809 0.07438,-3.56688c-0.06302,-2.33248 0,-4.66667 0,-7c0,-10.64111 0.18388,-21.20818 -0.98127,-31.69454c-0.36106,-3.24955 -1.67522,-14.26776 -2.72816,-12.93375c-15.48211,5.1607 -27.72956,16.59668 -38.65472,29.12829h4.86415l0,0.04727c0.15719,-0.00488 0.31476,-0.00573 0.47277,-0.00216c2.90462,0.0656 8.98378,3.88812 11.64527,5.21882l-0.11803,-0.26393c0,0 2.5,0 2.5,2.5zM334.81776,341.53697c0,0 -1.60046,1.92055 -3.52101,0.32009c-1.92055,-1.60046 -0.32009,-3.52101 -0.32009,-3.52101c16.54615,-19.85538 33.5994,-44.26105 59.12998,-52.77125c7.60255,-1.19125 7.28939,3.27286 8.27201,10.06763c1.04279,7.21086 5.64749,53.41893 -1.90706,54.7372c-5.6748,0.99025 -15.35269,-6.49882 -19.71876,-9.49794c-7.18783,-5.28178 -14.8144,-9.90599 -22.24237,-14.85505l-2.96774,-1.97849c-0.55269,-0.35694 -0.95557,-0.92596 -1.09352,-1.59194c-5.42747,6.41226 -10.55538,12.99949 -15.63144,19.09077z" fill="#ff0000"/></g></g></svg>