<svg version="1.1" xmlns="http://www.w3.org/2000/svg" xmlns:xlink="http://www.w3.org/1999/xlink" width="433.07125" height="183.68076" viewBox="0,0,433.07125,183.68076"><g transform="translate(-132.22138,-15.94769)"><g fill="#000000" stroke="none" stroke-width="0.5" stroke-miterlimit="10"><path d="M144.25751,55.06714c0,-2.5 2.5,-2.5 2.5,-2.5l2.34712,0.01931c3.11144,0.39381 6.0726,0.2091 9.18482,0.39121c5.33689,0.31228 10.58132,1.21784 15.94158,1.22541c11.34166,1.62024 31.46046,3.10093 41.70875,-2.90144c5.8995,-3.45531 10.18617,-16.00996 3.74927,-20.93936c-18.4103,-5.89305 -39.48469,-6.42038 -58.61447,-7.45012c-6.2525,-0.33657 -16.32611,-3.29981 -22.22065,-2.04233c-1.47135,0.31388 1.22461,2.78962 1.43433,4.27938c0.04278,23.37668 5.67263,46.58796 5.70999,69.84389c0,0 0,2.5 -2.5,2.5c-2.5,0 -2.5,-2.5 -2.5,-2.5c0.04144,-23.12806 -5.74487,-46.2333 -5.69741,-69.48945c-1.99595,-13.74843 11.39446,-8.85465 21.12778,-8.07944c21.51418,1.71348 45.07261,1.49673 65.69365,8.57007c4.79035,4.14123 4.95988,8.2759 4.95006,14.40622c-0.03728,23.27207 -37.07907,21.09239 -53.19574,18.79001c-5.3253,0.00791 -10.53579,-0.90548 -15.8362,-1.21904c-3.23036,-0.1911 -6.32173,-0.02395 -9.55592,-0.42361l-1.72695,0.01931c0,0 -2.5,0 -2.5,-2.5z"/><path d="M278.05635,69.04224c2.32119,0.92848 1.39272,3.24967 1.39272,3.24967l-1.36824,2.87633c-2.96172,2.93181 -6.27512,4.66007 -9.80126,6.86328c-2.89565,1.80926 -4.97625,3.3568 -8.29467,4.33579c-7.11641,2.66471 -13.00713,5.53053 -20.90125,5.00982c-10.93074,-0.72102 -25.98015,-15.44011 -18.64062,-26.67836c5.27234,-8.07298 15.19105,-9.60965 23.18595,-13.5912c25.26869,-7.28305 51.07297,10.24277 51.07297,36.95957c0,0 0,2.5 -2.5,2.5c-2.5,0 -2.5,-2.5 -2.5,-2.5c0,-23.12146 -22.24105,-38.52076 -44.26036,-32.29969c-7.00823,3.51864 -16.04614,4.7345 -20.81405,11.66806c-1.95486,2.8428 -1.14274,4.85216 0.18834,7.79267c6.89843,15.23953 21.42033,10.9651 33.60313,6.39064c2.96048,-0.81264 4.60117,-2.19589 7.18681,-3.81236c3.19811,-1.99938 6.28976,-3.49109 8.93948,-6.17376l0.26139,-1.19775c0,0 0.92848,-2.32119 3.24967,-1.39272z"/><path d="M341.49825,96.67825c-2.5,0 -2.5,-2.5 -2.5,-2.5l0.02513,-0.05385c-0.81964,-5.89762 -3.03093,-12.70895 -6.17027,-17.77997c-0.51547,-0.83264 -1.17984,-1.57457 -1.62963,-2.44444c-0.31227,-0.60392 -0.0305,-1.62926 -0.63632,-1.93782c-0.61118,-0.31128 -1.31644,0.38759 -1.9641,0.61338c-1.48872,0.519 -2.9245,1.1983 -4.44353,1.62044c-8.90942,2.47595 -16.42115,7.26538 -22.28466,14.61808c0,0 -1.56174,1.95217 -3.51391,0.39043c-1.95217,-1.56174 -0.39043,-3.51391 -0.39043,-3.51391c6.57958,-8.20104 14.98917,-13.57234 24.9746,-16.34488c2.7643,-0.76753 6.76157,-3.23492 9.88867,-1.84025c0.09451,0.04215 3.75125,5.39122 4.25256,6.21033c3.4844,5.69319 5.90261,13.10577 6.86677,19.70152l0.02513,0.76096c0,0 0,2.5 -2.5,2.5z"/><path d="M390.81118,92.70421c1.88144,1.64626 0.23518,3.5277 0.23518,3.5277l-3.20484,3.59134c-1.59706,0.80779 -3.19413,1.61559 -4.79119,2.42338c-34.88996,7.05434 -40.57553,-27.7752 -9.64629,-37.36109c0,0 2.40381,-0.6868 3.09061,1.71701c0.6868,2.40381 -1.71701,3.09061 -1.71701,3.09061c-3.40696,0.8487 -6.96139,4.33161 -9.61209,6.79234c-16.4123,15.23606 -0.33913,24.30398 16.2621,21.03176c1.11899,-0.55023 2.23797,-1.10046 3.35696,-1.65069l2.49887,-2.92718c0,0 1.64626,-1.88144 3.5277,-0.23518z"/><path d="M419.19658,77.50371c1.60046,1.92055 -0.32009,3.52101 -0.32009,3.52101l-1.69237,1.36923c1.86323,3.76733 3.28169,7.36748 4.09325,9.7715c0,0 0.79057,2.37171 -1.58114,3.16228c-2.37171,0.79057 -3.16228,-1.58114 -3.16228,-1.58114c-0.47449,-1.44547 -1.33348,-3.71687 -2.46617,-6.2782c-0.88358,1.35935 -1.88036,2.60262 -3.01858,3.40305c-6.07202,4.27 -15.00641,0.17914 -20.78722,-2.73551c-8.47537,-7.18923 1.54278,-23.54146 11.93302,-22.09208c4.72418,0.659 9.13656,5.97962 12.5961,11.89337l0.88446,-0.75361c0,0 1.92055,-1.60046 3.52101,0.32009zM411.48684,82.14891c-2.86572,-5.368 -6.517,-10.47953 -10.09275,-11.16961c-4.28591,-0.82713 -13.19228,9.62884 -8.43735,12.94496c3.4355,1.69856 11.38477,5.82123 15.06463,2.9682c1.34359,-1.0417 2.48362,-2.94607 3.46546,-4.74355z"/><path d="M509.02558,92.1342c2.45145,0.49029 1.96116,2.94174 1.96116,2.94174l-0.77873,2.9335c-1.09888,1.61692 -2.57407,2.94391 -3.90405,4.37679c-0.81175,0.87456 -1.09733,2.2888 -2.13945,2.87c-3.06754,1.71079 -4.69144,0.69471 -7.46356,-0.16576c-6.59968,-2.48107 -12.78891,-7.72152 -16.99082,-13.61519c-7.17909,-0.0122 -13.52398,-0.30257 -16.98031,-0.43544c-0.89193,0.99288 -2.3515,0.70097 -2.3515,0.70097l-1.85683,-0.37816c-6.53716,-0.82046 -12.97961,-2.42574 -19.3949,-3.88477c-1.96123,-0.44604 -3.85258,-0.79972 -5.70079,-1.19941c0.24602,2.88973 0.65158,5.74417 1.34965,8.51567c0,0 0.60634,2.42536 -1.81902,3.0317c-2.42536,0.60634 -3.0317,-1.81902 -3.0317,-1.81902c-0.89505,-3.60465 -1.33628,-7.32443 -1.57787,-11.07848c-1.53121,-0.51789 -3.04913,-1.16371 -4.57046,-2.02392c0,0 -2.17061,-1.24035 -0.93026,-3.41096c1.24035,-2.17061 3.41096,-0.93026 3.41096,-0.93026c0.61473,0.35569 1.23178,0.66871 1.85183,0.94704c-0.09815,-3.40776 -0.13276,-6.81184 -0.29181,-10.15242c-0.43329,-9.10059 -1.22629,-18.20157 -1.22629,-27.32772l-0.33276,-1.02329c0,0 -0.60634,-2.42536 1.81902,-3.0317c2.42536,-0.60634 3.0317,1.81902 3.0317,1.81902l0.48205,2.23597c0,9.03075 0.78925,18.03706 1.21816,27.04266c0.13112,2.75312 0.16502,5.56163 0.22247,8.38222c2.94181,-1.9367 6.07076,-3.1556 9.48116,-4.37302c4.18243,-1.49301 7.87259,-3.53068 12.29874,-4.19339l0.18903,-0.42007c0,0 2.08013,-1.38675 3.46688,0.69338c1.38675,2.08013 -0.69338,3.46688 -0.69338,3.46688l-2.25542,1.20956c-4.04481,0.54298 -7.50772,2.58869 -11.33089,3.95475c-3.05119,1.09022 -5.88894,2.11281 -8.51292,3.8889c1.48948,0.29198 3.00872,0.56793 4.56586,0.92158c6.21485,1.4115 12.45664,2.9862 18.78915,3.7837c0.67924,-0.41269 1.43155,-0.41269 1.43155,-0.41269c1.15252,0 8.01339,0.48413 16.34582,0.69553c-5.5491,-11.14881 -3.03717,-22.60788 17.19984,-21.46948c6.45305,0.363 12.84782,2.65283 17.44926,7.18039c17.02094,15.12805 -5.28057,18.55383 -25.62614,19.03102c3.60884,3.94783 8.19654,7.34099 12.53963,8.96513c0.25253,0.09382 2.49681,1.18627 3.12903,0.64906c0.58643,-0.4983 0.61628,-1.43694 1.11981,-2.01889c1.11176,-1.28492 2.50323,-2.34678 3.42929,-3.77136l0.03608,-1.14058c0,0 0.49029,-2.45145 2.94174,-1.96116zM482.22147,86.76024c17.43529,0.12566 37.16727,-1.45818 25.83742,-10.71065c-3.67964,-3.75139 -9.07082,-5.6018 -14.32852,-5.85665c-16.50602,-0.80006 -16.96049,8.07898 -11.5089,16.5673z"/><path d="M215.5604,167.70528c-1.76777,1.76777 -3.53553,0 -3.53553,0l-2,-2c-1.86599,-1.86599 -3.73667,-3.72057 -5.54656,-5.64114c-14.23666,-4.33628 -29.50585,-9.82258 -44.03691,-11.659c-1.69535,-0.21426 -3.41298,-0.53143 -5.13008,-0.91344c-0.27517,10.15487 -0.01868,20.38079 -0.01868,30.44581c0,0 0,2.5 -2.5,2.5c-2.5,0 -2.5,-2.5 -2.5,-2.5c0,-9.90198 -0.24557,-19.9668 -0.00005,-29.96946c-0.36129,0.05006 -0.72227,0.10056 -1.08291,0.15154c-2.44986,0.12257 -13.06835,1.83349 -14.95491,-0.21105c-2.83307,-3.07031 -3.11761,-8.99174 1.81341,-10.36376c1.61208,-0.44855 7.17492,0.53396 14.55014,2.2519c0.50681,-8.87293 1.5638,-17.64763 3.69305,-26.16463c-0.03001,-4.31702 -1.65775,-9.79448 3.52456,-12.00424c9.0786,-3.87116 61.09143,9.1697 72.74728,12.93799c15.07164,6.79306 -6.63029,19.23851 -13.97833,21.73608c-14.35094,4.87783 -29.60862,7.1032 -44.79442,8.97887c15.41786,4.26152 30.87505,8.97247 35.29651,10.53013c2.17846,2.09448 4.31669,4.22211 6.45344,6.35886l2,2c0,0 1.76777,1.76777 0,3.53553zM155.56841,140.99064c0.96358,0.23938 1.94658,0.48717 2.94534,0.74217c15.77495,-2.34496 31.15149,-5.0029 46.9132,-8.43307c6.75998,-1.47115 19.96461,-3.40409 24.32215,-9.80234c1.59936,-2.34837 1.33684,-4.08168 -0.74703,-4.18817c-14.24128,-4.93277 -55.29627,-14.78925 -69.25272,-13.06201c-1.45129,0.17961 -0.46864,6.79504 -0.47544,7.99576c-2.17685,8.70742 -3.22263,17.67904 -3.7055,26.74766zM143.18063,143.72338c-2.69713,-1.43983 -5.73101,-3.29069 -5.97871,-1.11853c-0.15385,1.34914 2.91335,1.37006 5.97871,1.11853z"/><path d="M286.5832,136.56581c2.37171,0.79057 1.58114,3.16228 1.58114,3.16228l-1.06201,3.16614c-1.56508,3.13253 -2.2402,4.93586 -4.37634,7.62826c-1.2075,1.52193 -2.82526,2.7725 -3.68757,4.51341c-0.95679,1.93168 -1.17742,5.07568 -1.94954,6.89018c-0.54182,1.27328 -1.47684,2.34055 -2.21525,3.51083c-2.16586,5.44771 -6.15002,20.97151 -13.08099,22.00061c-9.1693,1.36144 -20.83284,-39.54088 -19.45145,-46.99029c0,0 0.49029,-2.45145 2.94174,-1.96116c2.45145,0.49029 1.96116,2.94174 1.96116,2.94174c-1.38022,6.30719 0.34154,11.67981 2.85825,17.553c2.55244,5.9566 4.43398,14.43285 8.62366,19.37174c1.10144,1.29841 1.59147,4.9352 3.06664,4.08497c3.6845,-2.12359 7.03888,-15.32159 8.63291,-19.28416c2.23812,-3.46325 2.31898,-6.73449 4.1213,-10.31422c1.04607,-2.0777 2.85098,-3.67683 4.31243,-5.48659c1.63644,-2.02646 2.45264,-4.03177 3.62366,-6.37174l0.93799,-2.83386c0,0 0.79057,-2.37171 3.16228,-1.58114z"/><path d="M345.91067,187.17358c-2.23607,1.11803 -3.3541,-1.11803 -3.3541,-1.11803l-1.13564,-2.32746c-1.69862,-5.25408 -0.44593,-10.01363 -1.09601,-15.39011c-0.3614,-2.98894 -2.10702,-6.42752 -2.81857,-9.38907c-0.95072,-1.39103 -3.03081,-6.12047 -4.67042,-6.70169c-16.41191,-5.81778 -34.07474,16.07145 -43.27552,25.45807c0,0 -1.76777,1.76777 -3.53553,0c-1.76777,-1.76777 0,-3.53553 0,-3.53553c5.05017,-4.91764 8.33677,-11.5767 14.18279,-16.16559c6.79736,-5.33564 25.79027,-14.05259 34.54168,-10.37634c3.23653,1.35959 5.54895,6.57401 7.32958,9.29831c0.84171,3.2583 2.75354,7.27723 3.18143,10.61093c0.64227,5.00398 -0.76306,9.79698 0.90399,14.60989l0.86436,1.67254c0,0 1.11803,2.23607 -1.11803,3.3541z"/><path d="M565.29263,195.93752c0,2.5 -2.5,2.5 -2.5,2.5l-1.39366,-0.07464c-4.97536,1.2215 -9.49795,1.07464 -14.60634,1.07464c-28.10112,0 -58.96054,2.02012 -86,-7.08166v0.08166l-3,0c-1.38071,0 -2.5,-1.11929 -2.5,-2.5c0,-1.1246 0.74256,-2.07576 1.76412,-2.38994l2.94531,-0.98177l0.0261,0.07831l0.17255,-0.13552c2.35553,-0.33485 4.41219,-1.79258 6.54728,-2.84237c6.09374,-2.9962 12.82478,-5.17428 18.64686,-8.80145c3.3075,-2.06058 6.32728,-5.61088 9.24535,-8.18565c2.24312,-1.97922 5.23489,-3.26731 6.87371,-5.76994c0.36231,-0.55328 -0.19187,-1.31098 -0.22128,-1.97168c-0.04446,-0.99901 -0.00576,-2.00002 0,-3c0.02316,-4.01667 -1.17483,-8.08785 -3.43336,-11.41503c-15.80439,-15.80439 -45.45276,-6.92032 -64.46031,-2.15962c0,0 -2.42536,0.60634 -3.0317,-1.81902c-0.60634,-2.42536 1.81902,-3.0317 1.81902,-3.0317c21.46155,-5.35496 51.88245,-13.81686 69.53969,3.84038c3.59126,5.45434 4.77032,11.11583 4.56664,17.58497c-0.04232,1.34413 0.43719,2.85576 -0.22128,4.02832c-0.41924,0.74655 -7.14554,6.59999 -8.12305,7.4625c-3.102,2.73706 -6.25066,6.36737 -9.7579,8.58192c-6.0266,3.80533 -13.0159,6.1009 -19.35314,9.19855c-0.33239,0.16247 -0.66374,0.33124 -0.99496,0.50269c5.73968,0.61229 13.00512,2.23963 15.40033,2.7672c20.67315,4.55352 42.46404,2.95882 63.54999,2.95882c4.68582,0 8.84695,0.23505 13.39366,-0.92536l2.60634,-0.07464c0,0 2.5,0 2.5,2.5z"/></g></g></svg>