<svg version="1.1" xmlns="http://www.w3.org/2000/svg" xmlns:xlink="http://www.w3.org/1999/xlink" width="113.14596" height="115.60453" viewBox="0,0,113.14596,115.60453"><g transform="translate(-265.9252,-122.19773)"><g stroke="none" stroke-width="0.5" stroke-miterlimit="10"><g><path d="M306.36149,127.86135l1.21712,-0.24358l1.36543,-0.15197l1.43635,-0.14388l2.44078,0.15183l0.07859,-0.01451l0.07753,0.01935l0.4957,-0.00009l0.90884,-0.2271l0.24785,0.06185l0.35283,-0.00005l0.36201,0.09035l0.30813,-0.00004l0.29892,0.07461l4.2137,-0.00024l0.58318,0.1165l0.24902,-0.01184l0.24186,0.0604l1.40459,0.00008l0.58319,0.11655l0.24902,-0.01182l0.24187,0.06042l1.08099,0.00013l0.1104,0.03677l0.40117,0.03088l0.39036,0.09753l0.91574,0.00016l0.11039,0.03678l0.40117,0.0309l0.39035,0.09756l1.14377,0.00026l0.11589,0.02575l0.55795,0.13947l0.06974,0.00002l0.07018,0.01559l0.02065,-0.01375l0.10768,0.02393l0.55795,0.13948l0.04944,0.00001l0.16972,0.09046l0.66096,0.16525l0.30811,0.0001l0.29893,0.07475l0.02235,0.00001l1.02298,0.25581l0.3081,0.00011l0.10863,0.02717l0.22763,0.11377l0.26907,0.05983l0.24324,0.12967l1.28141,0.32052l0.74087,0.21177l0.17065,0.11371l0.45799,0.1636l0.43953,0.20817l0.49746,0.09962l0.03068,0.01534l0.56136,0.12489l0.55788,0.13961l0.06973,0.00003l0.07017,0.01561l0.02338,-0.01557l0.09145,0.00004l0.43732,0.14585l0.032,0.016l0.36608,0.24398l0.31481,0.11249l0.28206,0.17946l0.1777,0.05927l0.21683,0.14453l0.31481,0.11249l0.28205,0.17947l0.49565,0.16535l0.09783,0.00757l0.08659,0.04619l0.24031,0.06016l0.13499,0.08998l0.24653,0.08811l0.21226,0.15327l0.72943,0.29195l0.48181,0.24099l0.74372,0.4463l0.40968,0.12484l0.38704,0.18343l0.34055,0.06827l0.08372,0.05582l0.2465,0.08813l0.21224,0.1533l0.51871,0.20766l0.813,0.6098l0.00052,0.00182l0.00663,0.00354l0.23686,0.17766l0.45698,0.19258l0.43752,0.23348l0.24026,0.06018l0.07717,0.05146l1.26615,0.94983l0.37069,0.15624l0.33936,0.21606l0.11034,0.03684l0.19368,0.1453l0.20468,0.20468l0.26414,0.15858l0.21787,0.21787l0.77488,0.46523l0.0894,0.05964l0.23849,0.31791l0.13979,0.11362l0.09271,0.15445l0.49564,0.49571l0.21369,0.12831l0.16767,0.18446l0.13894,0.09269l0.73418,0.97881l0.13978,0.11362l0.0927,0.15446l0.3976,0.39771l0.54986,0.68738l0.43053,0.57406l0.62239,0.93355l0.0526,0.04784l0.02761,0.06553l0.41818,0.55765l0.42927,0.71541l0.12063,0.12069l0.07112,0.15512l0.63635,0.79568l0.27356,0.36484l0.20758,0.51875l0.11863,0.1643l0.05904,0.19385l0.49563,0.82616l0.04313,0.04316l0.02053,0.05746l0.57434,0.86178l0.70984,1.4198l0.29181,0.72946l0.06215,0.0861l0.02306,0.10367l0.34572,0.6916l0.09959,0.49744l0.14307,0.30212l0.07256,0.32631l0.39154,0.78334l0.26659,0.93291l0.11704,0.20298l0.05086,0.22873l0.22633,0.45288l0.25509,0.89283l0.1238,0.49519l0.14708,1.02873l0.04955,0.12168l0.00003,0.13138l0.14097,0.56394l0.14883,0.89276l0.01651,0.03799l-0.00196,0.04138l0.1573,0.78656l0.1502,0.90118l0.15892,1.27114l0.0337,0.0871l-0.00443,0.0933l0.14723,0.73647l0.13452,1.07646l0.00014,5.64942l-0.09042,0.362l-0.00001,0.10201l-0.04064,0.09355l-0.14869,0.89278l-0.14088,0.56395l-0.00001,0.10201l-0.04063,0.09355l-0.14873,0.89277l-0.1176,0.4707l-0.29986,0.90021l-0.01214,0.15768l-0.06765,0.14294l-0.16519,0.82615l0.00337,0.07103l-0.02681,0.06586l-0.13335,0.93318l-0.20276,0.60856l-0.41589,0.83234l-0.03908,0.17585l-0.09665,0.152l-0.27414,0.82266l-0.25079,0.50186l-0.03909,0.17585l-0.09666,0.152l-0.76985,2.30974l-0.41602,0.83234l-0.05087,0.22874l-0.11706,0.20299l-0.26665,0.93292l-0.3916,0.78335l-0.01634,0.07346l-0.04552,0.05993l-0.49571,1.15661l-0.005,0.03096l-0.01835,0.02543l-0.62238,1.55559l-0.44916,0.89827l-0.0509,0.22871l-0.1171,0.20297l-0.24002,0.83928l-0.32594,0.54326l-0.05905,0.19385l-0.11864,0.16429l-0.23378,0.58413l-0.1859,0.27886l-0.07793,0.21803l-0.14009,0.18436l-0.46691,1.08886l-0.62822,1.25589l-0.05989,0.26899l-0.12974,0.24317l-0.09873,0.39427l-0.13796,0.27577l-0.24405,0.366l-0.05324,0.1489l-0.10292,0.12008l-0.26087,0.52145l-0.24406,0.36599l-0.05323,0.1489l-0.10292,0.12008l-0.39493,0.78934l-0.33685,0.44904l-0.54993,0.6873l-0.23243,0.23244l-0.09271,0.15444l-0.13979,0.11361l-0.47229,0.62954l-0.41226,0.5152l-0.20743,0.18858l-0.49154,0.42137l-0.00215,0.03828l-0.27367,0.41027l-0.34735,0.46294l-0.02945,0.02944l-0.26194,0.17468l-0.03828,0.00215l-0.42141,0.49148l-0.43557,0.47899l0.00063,0.00909l-0.30724,0.30717l-0.36628,0.23314l-0.49306,0.29592l-0.04931,0.0493l-0.06064,0.0386l-0.00552,0.02755l-0.20499,0.20494l-0.28945,0.19299l-0.04784,0.0526l-0.06552,0.02761l-0.60532,0.45398l-0.159,0.106l-0.17768,0.05929l-0.23252,0.14798l-0.26363,0.08033l-0.82608,0.49571l-0.04316,0.04314l-0.05746,0.02054l-0.27885,0.18589l-0.37078,0.1484l-1.42663,0.28585l-0.09341,0.04426l-0.10329,0.00349l-1.05903,0.30287l-0.68712,0.13765l-0.9514,0.15889l-0.13212,0.05746l-0.14396,0.00486l-0.97091,0.27761l-1.11313,0.13951l-1.3321,0.14844l-1.34827,0.00053l-0.17476,0.04371l-0.17916,-0.01845l-0.98048,0.1403l-1.3091,0.00045l-0.13673,0.03419l-0.13965,-0.01881l-1.34929,0.15019l-1.34843,0.00038l-0.17478,0.04369l-0.17918,-0.01847l-1.13493,0.16223l-1.1455,0.14327l-1.16606,0.00022l-0.17478,0.04368l-0.17919,-0.01849l-0.9806,0.14007l-1.30928,0.00015l-0.15345,0.03833l-0.15701,-0.019l-1.16732,0.14582l-14.17773,-0.00198l-0.78704,-0.13129l-0.2085,0.0166l-0.20294,-0.05075l-0.90869,-0.00031l-1.40921,-0.28209l-0.07102,0.00335l-0.06586,-0.02683l-1.12769,-0.1614l-0.82277,-0.13735l-0.89716,-0.25648l-1.53337,-0.61349l-0.07456,-0.01019l-0.06349,-0.0404l-1.81382,-0.60498l-0.83224,-0.41619l-0.10366,-0.02307l-0.0861,-0.06217l-0.63987,-0.25608l-1.48026,-0.88823l-0.09387,-0.0286l-0.07451,-0.06385l-0.62803,-0.31413l-0.20853,-0.20845l-0.26418,-0.15854l-0.21789,-0.21782l-0.82607,-0.49576l-0.09385,-0.0286l-0.07452,-0.06386l-0.45898,-0.22961l-0.33806,-0.25357l-0.53518,-0.53507l-0.15445,-0.0927l-0.11362,-0.13978l-0.66086,-0.49572l-0.12106,-0.05102l-0.09291,-0.09289l-0.40567,-0.24351l-0.20157,-0.26865l-0.37387,-0.30381l-0.34066,-0.34064l-0.56181,-0.33727l-0.60826,-0.60826l-0.0992,-0.05955l-0.06828,-0.09341l-0.76668,-0.63906l-0.32031,-0.42699l-0.24632,-0.2002l-0.19239,-0.25248l-0.71774,-0.57442l-1.45602,-1.45634l-1.23512,-1.54402l-0.02046,-0.0156l-0.01119,-0.02317l-0.70215,-0.84274l-0.39615,-0.66017l-0.04313,-0.04315l-0.02054,-0.05746l-0.66085,-0.99135l-0.18438,-0.16771l-0.12825,-0.21375l-0.31997,-0.32014l-0.30589,-0.7135l-0.18163,-0.23906l-0.11654,-0.27669l-0.40208,-0.53628l-0.38205,-0.66866l-0.08568,-0.42781l-0.18335,-0.38706l-0.12477,-0.4097l-0.39241,-0.65419l-0.25599,-0.6399l-0.01835,-0.02543l-0.005,-0.03096l-0.37691,-0.87947l-0.11581,-0.69392l-0.06403,-0.14729l-0.00751,-0.1604l-0.49576,-1.65218l-0.11134,-0.18735l-0.0473,-0.21275l-0.14877,-0.29765l-0.10791,-0.75446l-0.02682,-0.06586l0.00336,-0.07102l-0.15738,-0.78652l-0.15869,-0.9515l-0.04065,-0.09356l-0.00003,-0.102l-0.0905,-0.36199l-0.00017,-0.6832l-0.06046,-0.24183l0.01179,-0.24898l-0.11663,-0.58311l-0.00035,-1.73481l-0.05072,-0.20294l0.01663,-0.2085l-0.13116,-0.78704l-0.00016,-1.11465l-0.04366,-0.17476l0.01849,-0.17918l-0.1577,-1.10427l-0.1475,-1.47546l0.00014,-6.63677l0.30112,-2.10828l0.16042,-0.96265l-0.01663,-0.2085l0.05072,-0.20294l0.00015,-0.80603l0.21914,-0.76726l0.28989,-0.87001l0.63334,-1.58403l0.03132,-0.22941l0.09908,-0.20927l0.27948,-1.39669l0.39293,-0.91709l0.005,-0.03096l0.01835,-0.02543l0.29175,-0.72949l0.44901,-0.89829l0.02305,-0.10366l0.06215,-0.08611l0.31912,-0.7978l0.36547,-0.85278l0.31555,-0.42095l0.08828,-0.20966l0.14799,-0.17276l0.49566,-0.99138l0.02306,-0.10366l0.06217,-0.0861l0.19276,-0.48176l0.42909,-0.5366l0.04615,-0.10068l0.08191,-0.07452l0.29187,-0.43791l0.45391,-0.6054l0.08831,-0.20965l0.14801,-0.17275l0.14885,-0.29763l0.20842,-0.20854l0.207,-0.34499l0.26177,-0.3055l0.14886,-0.29763l0.20843,-0.20854l0.09269,-0.15446l0.13976,-0.11363l0.49565,-0.66095l0.02761,-0.06553l0.0526,-0.04784l0.52347,-0.78516l0.32039,-0.3205l0.0927,-0.15446l0.13977,-0.11363l0.38897,-0.51862l0.70028,-0.70046l0.07252,-0.12084l0.11208,-0.08543l0.46244,-0.57803l0.40663,-0.30513l0.1136,-0.13981l0.15442,-0.09273l0.66089,-0.66096l0.07253,-0.12083l0.11209,-0.08543l0.37998,-0.47488l0.44035,-0.26438l0.34066,-0.34066l0.37387,-0.30384l0.28122,-0.37483l1.03571,-0.77698l0.11362,-0.13979l0.15445,-0.09271l0.27784,-0.27781l0.47946,-0.2878l0.57485,-0.28761l0.12008,-0.10293l0.14891,-0.05324l0.49566,-0.33051l0.04785,-0.05261l0.06553,-0.02762l0.60535,-0.45403l0.22105,-0.14739l0.31342,-0.12547l0.00485,0.00132l0.01633,-0.0098l0.24949,-0.09988l0.40834,-0.29491l0.43189,-0.25919l0.19008,-0.19l0.01544,-0.01115l0.0007,-0.00498l0.00232,-0.00233l0.29763,-0.14887l0.17275,-0.14803l0.20964,-0.08833l0.6054,-0.45397l0.30825,-0.20549l1.84336,-0.92186l0.20219,-0.17323l0.24204,-0.11096l0.53662,-0.42911l1.30792,-0.52331l0.2678,-0.19333l0.30441,-0.12819l0.33605,-0.25191l0.11038,-0.0368l0.15199,-0.09669l0.17584,-0.03911l0.28194,-0.14095l0.19716,-0.00008l0.66089,-0.16534l0.0866,-0.04617l0.09784,-0.00756l0.4957,-0.16527l0.152,-0.09668l0.17585,-0.03911l0.17139,-0.08566l0.82265,-0.27425l0.152,-0.09667l0.17585,-0.0391z" fill="#ff9500"/><path d="M377.36353,210.23778c-2.37171,0.79057 -3.16227,-1.58113 -3.16227,-1.58113l-0.50706,-1.61791c-0.48509,-2.97112 -1.32003,-6.50669 -2.66924,-9.21926c-1.02812,-2.067 -1.91134,-2.32439 -3.16226,-4.29154c-1.04701,-1.64649 -1.97332,-3.41754 -2.76113,-5.23341l-0.00365,0.0073l-0.45418,1.05976l-0.64886,1.62214l-0.06211,0.086l-0.02301,0.10356l-0.39123,0.78244l-0.26626,0.9319l-0.16433,0.28484l-0.09575,0.31459l-0.39207,0.65345l-0.25569,0.63923l-0.15311,0.212l-0.08796,0.24627l-0.20277,0.30416l-0.40472,0.94433l-0.04549,0.05985l-0.0163,0.07339l-0.53745,1.07489l-0.09848,0.39394l-0.12956,0.24293l-0.05972,0.26877l-0.33009,0.66018l-0.10281,0.11995l-0.05313,0.14877l-0.24376,0.36563l-0.26048,0.52097l-0.10281,0.11995l-0.05313,0.14877l-0.24375,0.36563l-0.42553,0.85105l-0.14789,0.17254l-0.08818,0.20944l-0.49514,0.66017l-0.03112,0.02528l-0.01671,0.03645l-0.66018,0.82523l-0.11197,0.08531l-0.07243,0.12072l-0.20446,0.20445l-0.38853,0.51804l-0.03112,0.02528l-0.01671,0.03646l-0.51508,0.64385l-0.00095,0.01718l-0.04068,0.03487l-0.10346,0.12932l-0.42426,0.32324l-0.10797,0.16195l-0.05256,0.04778l-0.02756,0.06547l-0.49514,0.66018l-0.13965,0.11347l-0.09258,0.1543l-0.33009,0.33008l-0.21352,0.12811l-0.16749,0.18425l-0.11745,0.0783l-0.16171,0.26952l-0.87492,0.87492l-0.00551,0.02754l-0.06058,0.03855l-0.04925,0.04926l-0.49257,0.29554l-0.36592,0.23286l-0.13178,0.13178l-0.21352,0.12811l-0.1675,0.18425l-0.4374,0.2916l-0.60466,0.4535l-0.06547,0.02756l-0.04779,0.05256l-0.49513,0.33009l-0.31446,0.11231l-0.28172,0.17927l-0.23478,0.07827l-0.53889,0.32333l-0.44563,0.29709l-0.24627,0.08795l-0.212,0.15311l-0.82522,0.33009l-0.22916,0.03125l-0.20902,0.09901l-1.55122,0.31025l-1.05802,0.30229l-0.1032,0.00344l-0.09331,0.0442l-0.82522,0.16504l-0.04134,-0.00197l-0.03796,0.0165l-0.8506,0.14176l-1.01917,0.29119l-0.19488,0.0065l-0.18184,0.07039l-1.32036,0.16505l-0.01749,-0.00212l-0.01651,0.00614l-1.4854,0.16505l-0.1395,-0.01886l-0.13657,0.03414h-1.30773l-0.97943,0.13992l-0.17898,-0.01852l-0.17457,0.04364h-1.34693l-1.34779,0.14975l-0.1395,-0.01885l-0.13657,0.03414h-1.30773l-0.00921,0.00132c0.14399,2.37384 -0.62293,5.01478 -0.63926,8.01436v0.00003c-0.00862,1.58305 -1.60418,4.53852 -0.03518,4.74908c5.19099,0.69665 17.84083,-4.37878 20.56682,0.3917c3.4811,6.09192 -23.08042,5.16745 -24.31472,4.17932c-0.33528,-0.26841 -0.6673,-0.5423 -0.97828,-0.83853c-0.59007,-0.56208 -0.42544,-2.84913 -0.40369,-3.37807c0.00788,-0.19152 -0.29042,-7.57058 0.35832,-12.62405h-1.00355l-1.16591,0.14574l-0.15683,-0.01901l-0.15326,0.03832h-14.52389l-0.20272,-0.05068l-0.20828,0.01666l-0.78617,-0.13103h-0.94841l-0.24157,-0.06039l-0.24872,0.01184l-1.5824,-0.31648l-1.08661,-0.15523l-0.02767,-0.01127l-0.02978,0.00238l-0.99026,-0.16504l-0.13198,-0.05738l-0.14383,-0.0048l-1.15531,-0.33009l-0.09627,-0.05554c1.13202,5.24364 -0.86606,13.29788 -0.84303,17.21911c0.02222,3.7851 16.50442,-3.04735 16.50442,2.98366c0,2.96866 -12.51228,4.35853 -19.59425,2.1875c-4.11917,-1.26276 -1.74525,-19.17369 -1.74513,-19.18706c0.00271,-0.31014 -0.01125,-3.57093 0.38159,-5.25768l-0.29547,-0.11819l-0.16411,-0.11852l-0.19365,-0.05894l-1.56812,-0.94087l-0.90439,-0.4522l-0.30513,-0.26154l-0.3446,-0.20676l-0.27751,-0.27751l-0.47899,-0.28739l-0.5743,-0.28715l-0.17253,-0.14789l-0.20944,-0.08818l-0.66017,-0.49513l-0.11347,-0.13966l-0.1543,-0.09258l-0.53455,-0.53455l-0.41486,-0.31115l-0.71463,-0.42878l-0.34028,-0.34027l-0.37349,-0.30345l-0.2013,-0.26841l-0.40529,-0.24318l-0.21762,-0.21762l-0.26391,-0.15834l-0.74503,-0.74504l-0.90315,-0.75262l-0.17255,-0.23613l-0.22698,-0.18443l-0.30471,-0.40627l-0.57739,-0.46191l-0.08532,-0.11198l-0.12071,-0.07243l-1.65044,-1.65045l-0.07243,-0.12071l-0.11198,-0.08531l-1.30474,-1.63093l-0.80921,-0.97106l-0.08498,-0.17602l-0.1382,-0.13821l-0.46452,-0.7742l-0.48987,-0.7348l-0.48513,-0.48513l-0.24361,-0.406l-0.28649,-0.37696l-0.37708,-0.87986l-0.31532,-0.42042l-0.06131,-0.1456l-0.1093,-0.11406l-0.66018,-1.15531l-0.1088,-0.38687l-0.17204,-0.36319l-0.08011,-0.4006l-0.27234,-0.4539l-0.05894,-0.19366l-0.11852,-0.1641l-0.04453,-0.11131c-1.25273,1.55398 -1.87315,3.09269 -1.89926,5.68331c-0.02181,2.16426 1.26871,4.63875 1.93559,6.63941l0.22161,-0.15165c0,0 1.76776,1.76776 0,3.53553c-1.76776,1.76776 -3.53553,0 -3.53553,0l-1.4295,-1.80275c-0.87318,-2.61954 -2.17344,-5.40572 -2.19217,-8.22055c-0.02995,-4.50188 2.08738,-8.24924 4.95076,-11.59535l-0.13137,-0.91958l-0.15143,-0.75718l0.00197,-0.04134l-0.0165,-0.03795l-0.14863,-0.89178l-0.14083,-0.56332v-0.30776l-0.07464,-0.29857v-0.74272l-0.1165,-0.58248l0.01184,-0.24872l-0.06039,-0.24157v-1.77362l-0.13103,-0.78617l0.01667,-0.20829l-0.05068,-0.20271v-1.14269l-0.13992,-0.97943l0.00557,-0.05384l-0.01828,-0.05095l-0.16505,-1.65044l0.01838,-0.1256l-0.03079,-0.12316v-6.93185l0.04365,-0.17457l-0.01852,-0.17898l0.33008,-2.31062l0.01127,-0.02767l-0.00238,-0.02978l0.13103,-0.78618v-0.9484l0.08457,-0.33829l0.01162,-0.34851l0.33009,-1.15531l0.02783,-0.04824l0.00427,-0.05552l0.33009,-0.99026l0.04035,-0.06343l0.01016,-0.07448l0.57493,-1.43733l0.28507,-1.42537l0.11195,-0.23633l0.04164,-0.25818l0.48313,-1.12729l0.31876,-0.79692l0.06211,-0.086l0.02301,-0.10356l0.44863,-0.89726l0.29147,-0.72867l0.01835,-0.0254l0.00498,-0.03092l0.49514,-1.15531l0.18148,-0.23878l0.11638,-0.27642l0.35988,-0.47984l0.34782,-0.69563l0.29147,-0.72868l0.2156,-0.29852l0.15342,-0.33474l0.5924,-0.7405l0.26991,-0.40487l0.05256,-0.04779l0.02756,-0.06546l0.35988,-0.47984l0.22927,-0.45855l0.26154,-0.30513l0.20676,-0.34461l0.20827,-0.20826l0.14865,-0.29731l0.26154,-0.30513l0.20676,-0.34461l0.3695,-0.3695l0.3469,-0.46253l0.62169,-0.93253l0.18424,-0.1675l0.12811,-0.21352l0.3695,-0.3695l0.38853,-0.51805l0.13966,-0.11347l0.09258,-0.1543l0.72731,-0.72731l0.57368,-0.7171l0.25222,-0.19217l0.19996,-0.24609l0.51804,-0.38853l0.43664,-0.43664l0.57368,-0.7171l0.35254,-0.2686l0.31339,-0.31339l0.40529,-0.24318l0.2013,-0.2684l0.27586,-0.22414l0.22414,-0.27586l1.17821,-0.88367l0.3695,-0.3695l0.26391,-0.15835l0.21762,-0.21762l0.82522,-0.49514l0.09378,-0.02854l0.07443,-0.06379l0.52096,-0.26048l0.30789,-0.20526l0.60466,-0.4535l0.06547,-0.02757l0.04778,-0.05256l0.49514,-0.33009l0.24628,-0.08796l0.212,-0.15311l0.34877,-0.13951l0.13228,-0.13228l0.34461,-0.20676l0.30513,-0.26154l0.45855,-0.22928l0.47983,-0.35988l0.06547,-0.02756l0.04778,-0.05256l0.49513,-0.33009l0.14877,-0.05313l0.11995,-0.1028l1.74364,-0.87183l0.61841,-0.49473l0.33475,-0.15342l0.29851,-0.21559l1.34344,-0.53738l0.39565,-0.29674l0.37038,-0.15595l0.33904,-0.21576l0.32658,-0.10886l0.35537,-0.17768l0.01393,-0.02438l0.06966,-0.01741l0.06231,-0.03115l0.56075,-0.12461l0.55728,-0.13932h0.02233l0.26846,-0.06712l0.23549,-0.0785l0.17118,-0.08559l0.17566,-0.03904l0.15181,-0.09661l0.82171,-0.2739l0.50126,-0.25063l0.32597,-0.07244l0.30177,-0.14294l1.65044,-0.33009l0.1105,0.00527l0.10371,-0.03852l1.4854,-0.16504l0.01401,0.00189l0.01331,-0.00478l1.65044,-0.16505l0.20298,0.02971l0.20173,-0.03724l0.50903,0.03181c0.30239,-0.12983 0.63554,-0.20173 0.98547,-0.20173h1.98053l0.29857,0.07465h0.30777l0.3616,0.0904h0.35242l0.29857,0.07465h0.30776l0.3616,0.0904h4.14843l0.24157,0.06039l0.24872,-0.01184l0.58248,0.1165h1.40289l0.24157,0.06039l0.24872,-0.01185l0.58247,0.1165h1.23785l0.38988,0.09747l0.40069,0.03083l0.11026,0.03675h0.91466l0.38987,0.09747l0.40069,0.03082l0.11026,0.03675h0.91658l0.02336,-0.01557l0.0701,0.01557h0.06966l0.55728,0.13932l0.10755,0.0239l0.02063,-0.01375l0.0701,0.01558h0.06966l0.55728,0.13932l0.10755,0.0239l0.02063,-0.01375l0.0701,0.01558h0.06966l0.55728,0.13932l0.56075,0.12461l0.06231,0.03116l0.06966,0.01741l0.00372,0.00651l0.04431,0.01108h0.02233l0.29857,0.07464h0.30777l1.02178,0.25545h0.02425l0.02337,-0.01558l0.07009,0.01558h0.06966l0.55728,0.13932l0.56076,0.12461l0.0623,0.03115l0.06966,0.01741l0.01394,0.02438l0.26882,0.13442l1.05412,0.26352l0.03773,0.02013l0.04274,0.00142l1.15531,0.33009l0.33535,0.19347l0.3646,0.13021l0.08363,0.05576l0.34026,0.06805l0.24594,0.1165h0.25404l0.38988,0.09747l0.40069,0.03082l0.99027,0.33009l0.15181,0.0966l0.17565,0.03904l0.33009,0.16504l0.11994,0.10281l0.14878,0.05313l0.21657,0.14438l0.17752,0.05917l0.28171,0.17928l0.31447,0.11231l0.21657,0.14438l0.08643,0.02881l0.56703,0.14176l0.3775,0.20134l0.40291,0.14389l0.27855,0.1857l0.58353,0.23342l0.086,0.06211l0.10356,0.02301l0.66017,0.33009l0.07443,0.06379l0.09377,0.02855l0.4539,0.27233l0.4006,0.08012l0.439,0.20795l0.45746,0.16338l0.27855,0.1857l0.58353,0.23342l0.26746,0.19316l0.30406,0.12803l0.91647,0.68735l0.1704,0.0426l0.3775,0.20133l0.40291,0.1439l0.49513,0.33008l0.04778,0.05256l0.06547,0.02757l0.9958,0.74685l0.11026,0.03675l0.33904,0.21576l0.37038,0.15595l0.66017,0.49514l0.11347,0.13966l0.15429,0.09258l0.11247,0.11246l0.56132,0.33679l0.0431,0.0431l0.05741,0.0205l0.49514,0.33009l0.28473,0.3132l0.32852,0.26692l0.38853,0.51804l0.19446,0.19446l0.28916,0.19277l0.28474,0.31321l0.32851,0.26692l0.88367,1.17821l0.3695,0.3695l0.07243,0.12071l0.11198,0.08532l0.66018,0.82522l0.01671,0.03645l0.03112,0.02528l0.49514,0.66018l0.02757,0.06547l0.05256,0.04778l0.62169,0.93253l0.4535,0.60466l0.05093,0.12096l0.0928,0.0928l0.40862,0.68103l0.55513,0.69392l0.01671,0.03645l0.03112,0.02528l0.49514,0.66018l0.12803,0.30407l0.19316,0.26746l0.2557,0.63923l0.36146,0.60244l0.62718,0.94076l0.05313,0.14878l0.10281,0.11994l0.82522,1.65045l0.02301,0.10356l0.06211,0.086l0.29147,0.72868l0.44863,0.89726l0.07243,0.32597l0.14294,0.30178l0.09939,0.49692l0.34541,0.69082l0.05078,0.22849l0.11696,0.20274l0.26626,0.93189l0.22618,0.45236l0.05077,0.22849l0.11697,0.20274l0.33008,1.15531l0.00143,0.04273l0.02013,0.03773l0.16504,0.66018v0.13124l0.04951,0.12154l0.14681,1.02764l0.13376,0.53506v0.10189l0.04063,0.09345l0.15841,0.9505l0.15714,0.78569l-0.00197,0.04134l0.0165,0.03796l0.16505,0.99026l-0.00418,0.05213l0.01889,0.04878l0.15371,1.22972l0.14714,0.73565l-0.00444,0.09319l0.03368,0.08701l0.16505,1.32035l-0.01901,0.15683l0.03831,0.15326v6.10664l-0.07464,0.29857v0.30776l-0.14083,0.56332l-0.14863,0.89178l-0.04062,0.09345v0.10189l-0.14083,0.56332l-0.14863,0.89178l-0.04063,0.09345v0.10189l-0.16505,0.66018l-0.04613,0.08649l-0.00752,0.09774l-0.28087,0.8426l-0.12091,0.60456l-0.15523,1.08662l-0.08573,0.21044l-0.01743,0.22657l-0.33009,0.99027l-0.0966,0.15181l-0.03904,0.17566l-0.41568,0.83135l-0.27391,0.82171l-0.0966,0.15181l-0.03904,0.17565l-0.01712,0.03424c0.79737,0.50427 1.10166,1.41714 1.10166,1.41714c1.52949,4.66843 4.75203,7.81383 6.89128,12.07549c1.57151,3.13065 2.52883,7.16901 3.10963,10.59401l0.3185,0.85876c0,0 0.79057,2.3717 -1.58114,3.16227zM280.69215,174.72729c0,0 1.76777,-1.76776 3.53553,0c1.76776,1.76776 0,3.53553 0,3.53553c-2.58659,2.58659 -5.03311,5.27185 -7.53811,7.8912l0.0921,0.55261l0.37651,0.87853l0.00499,0.03093l0.01834,0.0254l0.25569,0.63923l0.39207,0.65345l0.12457,0.40929l0.18315,0.38665l0.08548,0.42741l0.38167,0.66794l0.40175,0.53566l0.11639,0.27642l0.18147,0.23879l0.30548,0.71278l0.31974,0.31973l0.12811,0.21352l0.18425,0.1675l0.66017,0.99026l0.02051,0.05741l0.0431,0.0431l0.39569,0.65949l0.70148,0.84178l0.01117,0.02315l0.02045,0.01558l1.23385,1.54232l1.45463,1.45463l0.7171,0.57368l0.19216,0.25222l0.2461,0.19995l0.31993,0.42657l0.76593,0.63828l0.0682,0.09332l0.09911,0.05947l0.6076,0.6076l0.56131,0.33679l0.34028,0.34027l0.37348,0.30346l0.2013,0.26841l0.40529,0.24317l0.0928,0.0928l0.12096,0.05093l0.66017,0.49514l0.11347,0.13966l0.1543,0.09257l0.53454,0.53455l0.3377,0.25328l0.45855,0.22928l0.07443,0.06379l0.09377,0.02854l0.82523,0.49513l0.21762,0.21762l0.26391,0.15834l0.20826,0.20826l0.6274,0.3137l0.07442,0.06379l0.09378,0.02854l1.47867,0.8872l0.63923,0.25569l0.086,0.06212l0.10356,0.02301l0.83135,0.41567l1.81198,0.60399l0.06342,0.04036l0.07448,0.01015l1.53172,0.61269l0.89622,0.25606l0.82193,0.13699l1.12653,0.16094l0.06579,0.0268l0.07095,-0.00338l1.4077,0.28154h0.90776l0.20271,0.05068l0.20828,-0.01667l0.78618,0.13103h14.16134l1.16591,-0.14574l0.15683,0.01901l0.15326,-0.03831h1.30773l0.97942,-0.13992l0.17899,0.01852l0.17457,-0.04365h1.16471l1.14415,-0.14302l1.1336,-0.16194l0.17899,0.01852l0.17457,-0.04364h1.34693l1.34778,-0.14975l0.13951,0.01885l0.13657,-0.03414h1.30773l0.97942,-0.13992l0.17899,0.01851l0.17457,-0.04364h1.34694l1.33076,-0.14786l1.11204,-0.139l0.96992,-0.27712l0.14383,-0.00479l0.13197,-0.05739l0.9505,-0.15841l0.68647,-0.13729l1.05802,-0.30229l0.1032,-0.00344l0.09331,-0.0442l1.42537,-0.28508l0.37042,-0.14817l0.27855,-0.1857l0.05741,-0.0205l0.0431,-0.0431l0.82522,-0.49514l0.2634,-0.08016l0.23228,-0.14781l0.17752,-0.05918l0.15883,-0.10589l0.60467,-0.4535l0.06547,-0.02757l0.04778,-0.05256l0.28915,-0.19277l0.20475,-0.20475l0.0055,-0.02754l0.06058,-0.03855l0.04925,-0.04925l0.49258,-0.29555l0.36591,-0.23286l0.30688,-0.30688l-0.00063,-0.00908l0.43504,-0.47854l0.42089,-0.49104l0.03826,-0.00212l0.26169,-0.17446l0.02942,-0.02942l0.34689,-0.46253l0.27329,-0.40992l0.00212,-0.03826l0.49104,-0.42089l0.20721,-0.18838l0.41176,-0.5147l0.4717,-0.62893l0.13966,-0.11347l0.09258,-0.1543l0.23218,-0.23218l0.54928,-0.6866l0.33644,-0.44859l0.39432,-0.78864l0.10281,-0.11995l0.05313,-0.14878l0.24375,-0.36562l0.26048,-0.52096l0.10281,-0.11995l0.05313,-0.14878l0.24375,-0.36563l0.13775,-0.27551l0.09848,-0.39394l0.12956,-0.24293l0.05973,-0.26877l0.62732,-1.25464l0.46619,-1.08778l0.13995,-0.18414l0.07779,-0.21782l0.1857,-0.27855l0.23342,-0.58353l0.11852,-0.1641l0.05894,-0.19366l0.32558,-0.54264l0.23955,-0.83845l0.11697,-0.20274l0.05077,-0.22849l0.44863,-0.89726l0.62156,-1.55389l0.01834,-0.0254l0.00499,-0.03092l0.49513,-1.15531l0.04549,-0.05985l0.0163,-0.07339l0.39123,-0.78244l0.26626,-0.9319l0.11696,-0.20275l0.05078,-0.22849l0.41567,-0.83135l0.76904,-2.30711l0.0966,-0.15181l0.03904,-0.17566l0.25063,-0.50126l0.27391,-0.82172l0.09661,-0.15181l0.03904,-0.17565l0.41567,-0.83135l0.20262,-0.60786l0.13317,-0.93215l0.0268,-0.06578l-0.00338,-0.07095l0.16504,-0.82522l0.06763,-0.14277l0.01212,-0.15751l0.29973,-0.89918l0.11754,-0.47017l0.14863,-0.89178l0.04063,-0.09345v-0.1019l0.14083,-0.56331l0.14863,-0.89178l0.04063,-0.09345v-0.1019l0.0904,-0.3616v-5.64323l-0.13441,-1.07528l-0.14713,-0.73565l0.00444,-0.0932l-0.03368,-0.08701l-0.15872,-1.26975l-0.15004,-0.90019l-0.15713,-0.7857l0.00196,-0.04134l-0.0165,-0.03795l-0.14863,-0.89178l-0.14083,-0.56331v-0.13125l-0.04952,-0.12154l-0.1468,-1.02764l-0.12366,-0.49465l-0.25482,-0.89185l-0.22618,-0.45236l-0.05078,-0.22849l-0.11696,-0.20274l-0.26626,-0.9319l-0.39123,-0.78244l-0.07243,-0.32597l-0.14294,-0.30178l-0.09939,-0.49692l-0.3454,-0.69082l-0.02301,-0.10356l-0.06211,-0.086l-0.29147,-0.72867l-0.70911,-1.41822l-0.57384,-0.86077l-0.0205,-0.0574l-0.04311,-0.0431l-0.49513,-0.82522l-0.05894,-0.19366l-0.11852,-0.1641l-0.20728,-0.51822l-0.27331,-0.36441l-0.63578,-0.79472l-0.07103,-0.15497l-0.12054,-0.12053l-0.42878,-0.71464l-0.41775,-0.55701l-0.02757,-0.06546l-0.05256,-0.04778l-0.62169,-0.93253l-0.43007,-0.57342l-0.54928,-0.68661l-0.39722,-0.39722l-0.09258,-0.1543l-0.13966,-0.11347l-0.73332,-0.97777l-0.13882,-0.09255l-0.1675,-0.18425l-0.21352,-0.12811l-0.49513,-0.49513l-0.09258,-0.1543l-0.13966,-0.11347l-0.2382,-0.31759l-0.08932,-0.05955l-0.77421,-0.46453l-0.21762,-0.21762l-0.26391,-0.15834l-0.20445,-0.20445l-0.19349,-0.14512l-0.11026,-0.03675l-0.33904,-0.21576l-0.37038,-0.15595l-1.26484,-0.94863l-0.07709,-0.05139l-0.24007,-0.06002l-0.4371,-0.23312l-0.45656,-0.19224l-0.2366,-0.17745l-0.00662,-0.00353l-0.00052,-0.00181l-0.81209,-0.60908l-0.51822,-0.20728l-0.212,-0.15312l-0.24627,-0.08795l-0.08363,-0.05575l-0.34026,-0.06806l-0.38665,-0.18315l-0.4093,-0.12457l-0.74289,-0.44574l-0.48129,-0.24065l-0.72867,-0.29147l-0.212,-0.15311l-0.24627,-0.08795l-0.13483,-0.08989l-0.24007,-0.06001l-0.08649,-0.04613l-0.09774,-0.00752l-0.49513,-0.16504l-0.28172,-0.17927l-0.31447,-0.11231l-0.21656,-0.14438l-0.17752,-0.05917l-0.28172,-0.17928l-0.31447,-0.11231l-0.36563,-0.24375l-0.03196,-0.01599l-0.43684,-0.14561h-0.09136l-0.02337,0.01557l-0.07009,-0.01557h-0.06966l-0.55728,-0.13932l-0.56076,-0.12462l-0.03064,-0.01532l-0.49692,-0.09938l-0.439,-0.20795l-0.45746,-0.16338l-0.17043,-0.11362l-0.74002,-0.21143l-1.27994,-0.31999l-0.24293,-0.12956l-0.26877,-0.05972l-0.22735,-0.11368l-0.1085,-0.02712h-0.30777l-1.02178,-0.25544h-0.02233l-0.29857,-0.07464h-0.30777l-0.66017,-0.16505l-0.1695,-0.0904h-0.04938l-0.55728,-0.13932l-0.10755,-0.0239l-0.02063,0.01375l-0.07009,-0.01557h-0.06966l-0.55728,-0.13932l-0.11576,-0.02573h-1.14245l-0.38987,-0.09747l-0.4007,-0.03082l-0.11025,-0.03675h-0.91466l-0.38988,-0.09747l-0.40069,-0.03082l-0.11026,-0.03675h-1.0797l-0.24157,-0.06039l-0.24872,0.01184l-0.58248,-0.11649h-1.4029l-0.24157,-0.06039l-0.24872,0.01184l-0.58248,-0.11649h-4.20864l-0.29857,-0.07465h-0.30777l-0.3616,-0.0904h-0.35242l-0.24757,-0.06189l-0.90774,0.22693h-0.49513l-0.07745,-0.01936l-0.0785,0.01449l-2.43805,-0.15238l-1.43473,0.14347l-1.36392,0.15154l-1.21576,0.24316l-0.36059,0.18032l-0.17566,0.03904l-0.15181,0.0966l-0.82171,0.27391l-0.17118,0.08559l-0.17566,0.03903l-0.1518,0.09661l-0.49514,0.16504l-0.09774,0.00752l-0.0865,0.04613l-0.66017,0.16504h-0.19697l-0.28161,0.14081l-0.17566,0.03903l-0.1518,0.09661l-0.11026,0.03675l-0.33562,0.25172l-0.30407,0.12803l-0.26746,0.19316l-1.30647,0.52258l-0.53593,0.42875l-0.24178,0.11082l-0.20193,0.17308l-1.84132,0.92066l-0.30789,0.20526l-0.60467,0.4535l-0.20943,0.08818l-0.17253,0.14789l-0.29732,0.14866l-0.00232,0.00232l-0.0007,0.00498l-0.01542,0.01114l-0.18983,0.18982l-0.43142,0.25886l-0.40787,0.29457l-0.24925,0.0997l-0.01631,0.00978l-0.00485,-0.00132l-0.31312,0.12525l-0.22081,0.1472l-0.60466,0.4535l-0.06547,0.02757l-0.04779,0.05256l-0.49513,0.33008l-0.14878,0.05313l-0.11995,0.10281l-0.5743,0.28715l-0.47898,0.28739l-0.27751,0.27751l-0.1543,0.09258l-0.11347,0.13966l-1.03464,0.77598l-0.28084,0.37446l-0.37349,0.30346l-0.34027,0.34028l-0.43996,0.26397l-0.3795,0.47439l-0.11198,0.08531l-0.07242,0.12072l-0.66018,0.66017l-0.15429,0.09258l-0.11347,0.13966l-0.40627,0.3047l-0.46191,0.57739l-0.11198,0.08532l-0.07243,0.12071l-0.69959,0.69959l-0.38853,0.51804l-0.13965,0.11347l-0.09258,0.1543l-0.32009,0.32009l-0.52286,0.7843l-0.05256,0.04778l-0.02757,0.06546l-0.49514,0.66018l-0.13966,0.11347l-0.09258,0.15429l-0.20826,0.20827l-0.14866,0.29731l-0.26153,0.30513l-0.20677,0.34461l-0.20826,0.20827l-0.14866,0.29731l-0.14788,0.17254l-0.08818,0.20943l-0.4535,0.60467l-0.2916,0.4374l-0.08186,0.07441l-0.04609,0.10057l-0.42874,0.53593l-0.1925,0.48125l-0.06212,0.086l-0.02301,0.10356l-0.49514,0.99026l-0.14789,0.17254l-0.08818,0.20943l-0.31533,0.42043l-0.36507,0.85183l-0.31877,0.79692l-0.06211,0.086l-0.02301,0.10356l-0.44863,0.89726l-0.29147,0.72867l-0.01834,0.0254l-0.00499,0.03093l-0.39259,0.91605l-0.27904,1.39519l-0.09901,0.20902l-0.03125,0.22916l-0.6329,1.58223l-0.28967,0.86904l-0.21898,0.76641v0.80518l-0.05068,0.20271l0.01666,0.20828l-0.16026,0.9616l-0.30086,2.10596v6.6295l0.14738,1.47384l0.15758,1.10305l-0.01852,0.17899l0.04364,0.17457v1.11345l0.13103,0.78617l-0.01666,0.20829l0.05068,0.20271v1.73298l0.11649,0.58248l-0.01184,0.24872l0.0604,0.24157v0.36361c1.88492,-1.76622 3.80149,-3.45295 5.47738,-5.12884z" fill="#000000"/><path d="M353.34083,179.40228c-0.16947,1.31651 -0.61757,2.5 -2.5,2.5c-4.64148,0 0.23466,-25.93742 0.63584,-29.23717c0,-0.11302 0.0075,-0.22429 0.02203,-0.33334c0.16296,-1.22312 1.21028,-2.16666 2.47797,-2.16666c1.38071,0 2.5,1.11929 2.5,2.5c0,0.43199 -0.10957,0.83839 -0.30243,1.19293c1.49176,6.97961 -2.22016,20.78021 -2.83341,25.54424z" fill="#000000"/><path d="M331.35057,149.66998c1.03548,0.96656 1.60098,2.42437 1.8326,4.20048c0.95225,7.3021 -3.73887,19.98421 -4.61401,26.02695c-0.19067,1.31651 -0.57612,2.5 -2.5,2.5c-5.52506,0 1.5677,-26.68325 2.69101,-30.50368c0.15774,-0.53649 0.70842,-1.79315 1.23096,-1.82218z" fill="#000000"/><path d="M304.90088,203.09347c0.50466,-0.88316 1.38925,-1.71746 2.56994,-2.49904c8.92564,-5.90855 34.77318,-8.80442 41.3285,-7.02226c0.83725,0.22762 4.08888,3.3125 3.53351,4.87477c-0.2813,0.7913 -0.64639,1.72073 -1.39755,2.09632c-0.75115,0.37558 -1.713,0.10757 -2.51558,-0.13976c-0.71794,-0.22125 -1.10829,-1.62972 -1.62661,-2.12562c-2.17676,-2.0826 -15.23568,0.80573 -18.9141,1.0439c-7.24919,0.46936 -13.13891,5.43946 -20.14802,6.27168c-0.47042,0.05586 -1.39902,0.00436 -1.59893,-0.34546z" fill="#000000"/></g></g></g></svg>